<mxfile host="Electron" agent="Mozilla/5.0 (Macintosh; Intel Mac OS X 10_15_7) AppleWebKit/537.36 (KHTML, like Gecko) draw.io/28.1.2 Chrome/138.0.7204.243 Electron/37.4.0 Safari/537.36" version="28.1.2">
  <diagram name="Page-1" id="4uXE5107IPeZrWz-OVcd">
    <mxGraphModel dx="1106" dy="748" grid="1" gridSize="10" guides="1" tooltips="1" connect="1" arrows="1" fold="1" page="1" pageScale="1" pageWidth="850" pageHeight="1100" math="0" shadow="0">
      <root>
        <mxCell id="0" />
        <mxCell id="1" parent="0" />
        <mxCell id="YkXKvpvC7lJtgDXOQDdZ-1" value="Customer managed IAM integration" style="rounded=1;whiteSpace=wrap;html=1;strokeColor=#475E75;fillColor=#F5F6F7;arcSize=24;absoluteArcSize=1;imageWidth=64;imageHeight=64;strokeWidth=1.5;dashed=1;dashPattern=1 2;verticalAlign=top;" vertex="1" parent="1">
          <mxGeometry x="700" y="641" width="1299" height="629" as="geometry" />
        </mxCell>
        <mxCell id="YkXKvpvC7lJtgDXOQDdZ-2" value="" style="rounded=1;whiteSpace=wrap;html=1;strokeColor=#0070F2;fillColor=#EBF8FF;arcSize=32;absoluteArcSize=1;imageWidth=64;imageHeight=64;strokeWidth=1.5;" vertex="1" parent="1">
          <mxGeometry x="1057" y="670" width="385" height="189" as="geometry" />
        </mxCell>
        <mxCell id="YkXKvpvC7lJtgDXOQDdZ-3" value="" style="shape=image;verticalLabelPosition=bottom;labelBackgroundColor=default;verticalAlign=top;aspect=fixed;imageAspect=0;image=data:image/svg+xml,PHN2ZyB4bWxuczp4bGluaz0iaHR0cDovL3d3dy53My5vcmcvMTk5OS94bGluayIgeG1sbnM9Imh0dHA6Ly93d3cudzMub3JnLzIwMDAvc3ZnIiB2aWV3Qm94PSIwIDAgMTQ0Ljc0NyAzOS44MzIiIGlkPSJhIj48ZGVmcz48bGluZWFyR3JhZGllbnQgZ3JhZGllbnRVbml0cz0idXNlclNwYWNlT25Vc2UiIHkyPSIzOS44MzIiIHgyPSI0MC4yNTgiIHkxPSIwIiB4MT0iNDAuMjU4IiBpZD0iYiI+PHN0b3Agc3RvcC1jb2xvcj0iIzAwYjhmMSIgb2Zmc2V0PSIwIi8+PHN0b3Agc3RvcC1jb2xvcj0iIzAwYjVlZiIgb2Zmc2V0PSIuMDE2Ii8+PHN0b3Agc3RvcC1jb2xvcj0iIzBkOTBkOCIgb2Zmc2V0PSIuMzA4Ii8+PHN0b3Agc3RvcC1jb2xvcj0iIzE2NzVjOCIgb2Zmc2V0PSIuNTc4Ii8+PHN0b3Agc3RvcC1jb2xvcj0iIzFjNjRiZSIgb2Zmc2V0PSIuODE3Ii8+PHN0b3Agc3RvcC1jb2xvcj0iIzFlNWZiYiIgb2Zmc2V0PSIxIi8+PC9saW5lYXJHcmFkaWVudD48L2RlZnM+PHBvbHlsaW5lIGZpbGwtcnVsZT0iZXZlbm9kZCIgZmlsbD0idXJsKCNiKSIgcG9pbnRzPSIwIDM5LjgzMiA0MC42OTIgMzkuODMyIDgwLjUxNyAwIDAgMCAwIDM5LjgzMiIvPjxwYXRoIGZpbGwtcnVsZT0iZXZlbm9kZCIgZmlsbD0iI2ZmZiIgZD0ibTQ3Ljc4Miw3LjQ4OWwtNy45MjUtLjAwNXYxOC44NDVsLTYuOTI0LTE4Ljg0NWgtNi44NjVsLTUuOTEyLDE1Ljc1OWMtLjYzLTMuOTczLTQuNzQtNS4zNDUtNy45NzQtNi4zNzQtMi4xMzUtLjY4Ni00LjQwMS0xLjY5NC00LjM4LTIuODA5LjAxNy0uOTE1LDEuMjE1LTEuNzY1LDMuNTg5LTEuNjM3LDEuNTk1LjA4NCwzLjAwMS4yMTMsNS44LDEuNTYzbDIuNzUzLTQuNzk1Yy0yLjU1NS0xLjMtNi4wODYtMi4xMjEtOC45NzgtMi4xMjRoLS4wMTdjLTMuMzc0LDAtNi4xODUsMS4wOTMtNy45MjgsMi44OTQtMS4yMTQsMS4yNTgtMS44NjksMi44NTYtMS44OTYsNC42MjMtLjA0NCwyLjQzMi44NDgsNC4xNTcsMi43MjEsNS41MzMsMS41ODMsMS4xNiwzLjYwNiwxLjkxMiw1LjM5LDIuNDY1LDIuMjAxLjY4MSwzLjk5NiwxLjI3NCwzLjk3NSwyLjUzOS0uMDE2LjQ1OS0uMTkxLjg4OC0uNTIxLDEuMjM2LS41NDguNTY2LTEuMzkxLjc3OS0yLjU1NS43OTktMi4yNDQuMDQ4LTMuOTEtLjMwMy02LjU2Mi0xLjg3bC0yLjQ0OCw0Ljg2MWMyLjY0NCwxLjUwNiw1Ljc3NiwyLjM4OCw4Ljk3MiwyLjM4OGwuNDExLS4wMDZjMi43ODItLjA1LDUuMDI2LS44NDIsNi44Mi0yLjI4Ni4xMDMtLjA4MS4xOTYtLjE2Ni4yOTEtLjI1bC0uNzk1LDIuMTIzaDcuMmwxLjIwOC0zLjY3NGMxLjI2NS40MzMsMi43MDQuNjcxLDQuMjMyLjY3MSwxLjQ4NywwLDIuODg5LS4yMjksNC4xMzEtLjYzNWwxLjE2NCwzLjYzN2gxMS43NDJ2LTcuNjA3aDIuNTYxYzYuMTg4LDAsOS44NTEtMy4xNTQsOS44NTEtOC40MzYsMC01Ljg4NS0zLjU1Ny04LjU4NS0xMS4xMzItOC41ODVabS0xOC4zMTcsMTYuMTI0Yy0uOTI1LDAtMS43OTItLjE2LTIuNTM5LS40NDNsMi41MTItNy45MjZoLjA0OGwyLjQ2OCw3Ljk0OGMtLjc0Mi4yNjMtMS41ODkuNDIxLTIuNDg4LjQyMVptMTguNzgzLTQuNTUzaC0xLjc0NnYtNi4zODZoMS43NDZjMi4zMjgsMCw0LjE4NS43NzMsNC4xODUsMy4xNTEsMCwyLjQ2MS0xLjg1NywzLjIzNi00LjE4NSwzLjIzNiIvPjxwYXRoIGZpbGw9IiMwMDJhODYiIGQ9Im04MC4yMTcsNy40MDFoMTAuMDYzYzUuNTk1LDAsOC42NzQsMS45MTcsOC42NzQsNi4xNTgsMCwyLjkwMy0xLjUxMyw1LjAxNC00LjMxMSw1LjcsMy4yOS40NTgsNS4yNzgsMi41ODYsNS4yNzgsNS44OTQsMCw1LjAxNC00LjA2NCw3LjAzNy05LjE4NCw3LjAzN2gtMTAuNTIxVjcuNDAxWm0xMy45NjksNi44MjZjMC0yLjE2NC0xLjQ5Ni0yLjk3My00LjI0LTIuOTczaC01LjA0OXY2LjI5OGg0Ljg5MWMzLjIwMiwwLDQuMzk4LTEuMTYxLDQuMzk4LTMuMzI1Wm0xLjAyMSwxMC41MjFjMC0yLjM1Ny0xLjc3Ny0zLjQ2Ni00LjgzOS0zLjQ2NmgtNS40NzF2Ny4wNTVoNS41MDZjMi44MTUsMCw0LjgwNC0uNzc0LDQuODA0LTMuNTg5WiIvPjxwYXRoIGZpbGw9IiMwMDJhODYiIGQ9Im0xMDkuMDUxLDExLjVoLTcuNTgzdi00LjA5OWgxOS44NDZ2NC4wOTloLTcuNTY1djIwLjY5aC00LjY5N1YxMS41WiIvPjxwYXRoIGZpbGw9IiMwMDJhODYiIGQ9Im0xMjUuMTQ4LDcuNDAxaDEwLjUwNGM2LjE5MiwwLDkuMDk2LDMuMTg1LDkuMDk2LDcuODk5LDAsNC4zOTgtMi44MzMsOC4xNDYtOC44NSw4LjE0NmgtNi4wN3Y4Ljc0NGgtNC42OFY3LjQwMVptMTQuOTAyLDcuOTUyYzAtMi41NTEtMS42ODktMy45MjMtNC45NDQtMy45MjNoLTUuMjc4djguMDRoNS40MTljMy4yNzIsMCw0LjgwNC0xLjU4Myw0LjgwNC00LjExN1oiLz48L3N2Zz4=;strokeWidth=1.5;" vertex="1" parent="1">
          <mxGeometry x="1070" y="680" width="67.25" height="18.55" as="geometry" />
        </mxCell>
        <mxCell id="YkXKvpvC7lJtgDXOQDdZ-4" value="" style="group" vertex="1" connectable="0" parent="1">
          <mxGeometry x="851" y="1185.0899999999997" width="185.12313758876553" height="84.23000000000005" as="geometry" />
        </mxCell>
        <mxCell id="YkXKvpvC7lJtgDXOQDdZ-5" value="" style="group" vertex="1" connectable="0" parent="YkXKvpvC7lJtgDXOQDdZ-4">
          <mxGeometry y="35.00000000000004" width="185.12313758876553" height="55" as="geometry" />
        </mxCell>
        <mxCell id="YkXKvpvC7lJtgDXOQDdZ-6" value="&lt;div style=&quot;&quot;&gt;&lt;p style=&quot;text-align: center;&quot;&gt;&lt;font style=&quot;font-size: 14px; color: rgb(0, 0, 0);&quot;&gt;&lt;font face=&quot;Helvetica&quot; style=&quot;&quot;&gt;&lt;span style=&quot;background-color: initial;&quot;&gt;Third party identity provider&lt;br&gt;&lt;/span&gt;&lt;/font&gt;&lt;font face=&quot;Helvetica&quot; style=&quot;&quot;&gt;&lt;span style=&quot;background-color: initial;&quot;&gt;/&amp;nbsp;&lt;/span&gt;&lt;span style=&quot;background-color: initial;&quot;&gt;identity management&lt;/span&gt;&lt;/font&gt;&lt;/font&gt;&lt;/p&gt;&lt;/div&gt;" style="text;html=1;align=left;verticalAlign=middle;resizable=0;points=[];autosize=1;strokeColor=none;fillColor=none;fontSize=12;fontColor=#556B82;fontFamily=Helvetica;" vertex="1" parent="YkXKvpvC7lJtgDXOQDdZ-5">
          <mxGeometry x="-2.8768624112344763" y="-15" width="188" height="70" as="geometry" />
        </mxCell>
        <mxCell id="YkXKvpvC7lJtgDXOQDdZ-7" value="" style="shape=image;editableCssRules=.*;verticalLabelPosition=bottom;labelBackgroundColor=default;verticalAlign=top;aspect=fixed;imageAspect=0;image=data:image/svg+xml,PHN2ZyB4bWxucz0iaHR0cDovL3d3dy53My5vcmcvMjAwMC9zdmciIHZpZXdCb3g9Ii0wLjUgLTAuNSAyOCAyOCIgaGVpZ2h0PSIyOCIgd2lkdGg9IjI4Ij4mI3hhOwkgIDxzdHlsZSB0eXBlPSJ0ZXh0L2NzcyI+LnN0MCB7IHN0b3AtY29sb3I6IHJnYig5MSwgMTE1LCAxMzkpOyB9IC5zdDEgeyBzdG9wLWNvbG9yOiByZ2IoMzQsIDUzLCA3Mik7IH0gPC9zdHlsZT4mI3hhOwk8ZGVmcz4mI3hhOwkJPGxpbmVhckdyYWRpZW50IGdyYWRpZW50VW5pdHM9InVzZXJTcGFjZU9uVXNlIiB5Mj0iMjUuMzA5IiB4Mj0iMjMuNDU0IiB5MT0iMy40NzQiIHgxPSIyLjAzOSIgaWQ9IkEiPiYjeGE7CQkJPHN0b3AgY2xhc3M9InN0MCIvPiYjeGE7CQkJPHN0b3AgY2xhc3M9InN0MSIgb2Zmc2V0PSIxIi8+JiN4YTsJCTwvbGluZWFyR3JhZGllbnQ+JiN4YTsJPC9kZWZzPiYjeGE7CTxwYXRoIGZpbGw9InVybCgjQSkiIGQ9Ik0yMS43NDcgMTMuMmExMS4zNSAxMS4zNSAwIDAgMSA0LjE2NCAzLjk0NWMxLjA1OSAxLjY4IDEuNTg5IDMuNTc5IDEuNTg5IDUuNjk5djMuMTIzYzAgMS4wMjItLjUzIDEuNTM0LTEuNTg5IDEuNTM0SDcuMjgyYy0uNDc1IDAtLjg1OS0uMTQ2LTEuMTUyLS40MzgtLjI5MS0uMjU2LS40MzgtLjYyMS0uNDM4LTEuMDk2di0xLjU4OUgxLjAzNGMtMS4wMjIgMC0xLjUzNC0uNTEyLTEuNTM0LTEuNTM0VjE5LjcyYTcuMjcgNy4yNyAwIDAgMSAxLjI2MS00LjE2NmMuODAzLTEuMjA5IDEuOTIxLTIuMTc1IDMuMjMzLTIuNzkzLS40NjQtLjUyOC0uODE4LTEuMTQzLTEuMDQyLTEuODA5YTYuODggNi44OCAwIDAgMS0uMzMtMi4wODFjMC0uODc3LjE2NS0xLjY4LjQ5NC0yLjQxMWE2LjE3IDYuMTcgMCAwIDEgMS4zMTUtMS45NzNjLjU2OC0uNTczIDEuMjM3LTEuMDM3IDEuOTczLTEuMzY5YTYuMDYgNi4wNiAwIDAgMSAyLjQxMS0uNDkzYy4yNTYgMCAuNDkzLjAxOC43MTIuMDUzYTIuNjUgMi42NSAwIDAgMSAuNzEyLjExQTcuNDEgNy40MSAwIDAgMSAxMi45MjYuMzc3YzEuMTM0LS41ODUgMi4zOTQtLjg4NiAzLjY3LS44NzcgMS4wOTYgMCAyLjEyLjIwMiAzLjA2OC42MDNzMS43NzEuOTY4IDIuNDY1IDEuNjk5Yy42OTQuNjk0IDEuMjQzIDEuNTE1IDEuNjQ1IDIuNDY1LjQwMy45MTIuNjAzIDEuOTE4LjYwMyAzLjAxNC4wMDMgMS4xNTItLjIzOSAyLjI5MS0uNzEyIDMuMzQyLS40MjIgMS4wMDEtMS4wOCAxLjg4NS0xLjkxOCAyLjU3NnpNMTYuNTk0IDIuNjIzYy0xLjMxNSAwLTIuNDI4LjQ1Ni0zLjM0MiAxLjM3MS0uODc3Ljg3Ny0xLjMxNSAxLjk3My0xLjMxNSAzLjI4OHMuNDM4IDIuNDI4IDEuMzE1IDMuMzQyYy45MTIuODc3IDIuMDI3IDEuMzE1IDMuMzQyIDEuMzE1czIuNDExLS40MzggMy4yODgtMS4zMTVhNC41NCA0LjU0IDAgMCAwIDEuMzY5LTMuMzQyYzAtMS4zMTUtLjQ1Ni0yLjQxMS0xLjM2OC0zLjI4OC0uODc3LS45MTQtMS45NzQtMS4zNzEtMy4yODktMS4zNzF6TTguNjUxIDUuNzQ5Yy0uODQyIDAtMS41NzEuMzEtMi4xOTIuOTMxLS41ODQuNTg0LS44NzcgMS4zMTUtLjg3NyAyLjE5MmEzLjA5IDMuMDkgMCAwIDAgLjg3NyAyLjE5MiAzLjA5IDMuMDkgMCAwIDAgMi4xOTIuODc3aDEuNzUzYTcuOTggNy45OCAwIDAgMS0xLjE1LTIuMTM3IDcuNjMgNy42MyAwIDAgMS0uNDM4LTIuNTJ2LS43NzFhNC4wMSA0LjAxIDAgMCAxIC4xNjMtLjc2NmgtLjMyOHpNMi42MjMgMjEuMzExaDMuMjMzYy4zMy0yLjUyMSAxLjM2OS00LjYwMyAzLjEyMy02LjI0N0g3LjI4M2MtMS4zMTUgMC0yLjQzLjQ1Ni0zLjM0NCAxLjM2OS0uODc3Ljg3Ny0xLjMxNSAxLjk3NC0xLjMxNSAzLjI4OXptMjEuNzU0IDEuNTM0YTcuNCA3LjQgMCAwIDAtLjYwMy0zLjAxNGMtLjM4My0uOTIxLS45NDItMS43NTgtMS42NDUtMi40NjVhNy4yNiA3LjI2IDAgMCAwLTIuNDY1LTEuNjk5Yy0uOTcxLS40MDYtMi4wMTUtLjYxMS0zLjA2OC0uNjAzLTEuMDk2IDAtMi4xMTguMjAyLTMuMDY4LjYwMy0uOTEyLjQwMy0xLjczNi45NjgtMi40NjUgMS42OTlhNy42NyA3LjY3IDAgMCAwLTEuNjQ1IDIuNDY1IDcuNCA3LjQgMCAwIDAtLjYwMSAzLjAxNHYxLjUzNGgxNS41NjF6Ii8+JiN4YTs8L3N2Zz4=;" vertex="1" parent="YkXKvpvC7lJtgDXOQDdZ-4">
          <mxGeometry x="63" y="-18" width="50" height="50" as="geometry" />
        </mxCell>
        <mxCell id="YkXKvpvC7lJtgDXOQDdZ-8" value="" style="rounded=1;whiteSpace=wrap;html=1;strokeColor=#0070F2;strokeWidth=1.5;arcSize=16;fillColor=#FFFFFF;perimeterSpacing=0;absoluteArcSize=1;container=0;" vertex="1" parent="1">
          <mxGeometry x="1058" y="937.0899999999999" width="530" height="217.7" as="geometry" />
        </mxCell>
        <mxCell id="YkXKvpvC7lJtgDXOQDdZ-9" value="" style="group" vertex="1" connectable="0" parent="1">
          <mxGeometry x="1211" y="1033.0899999999997" width="110" height="95" as="geometry" />
        </mxCell>
        <mxCell id="YkXKvpvC7lJtgDXOQDdZ-10" value="" style="group" vertex="1" connectable="0" parent="YkXKvpvC7lJtgDXOQDdZ-9">
          <mxGeometry width="110" height="95" as="geometry" />
        </mxCell>
        <mxCell id="YkXKvpvC7lJtgDXOQDdZ-11" value="&lt;font color=&quot;#1d2d3e&quot; face=&quot;arial&quot; style=&quot;&quot;&gt;&lt;font style=&quot;font-size: 14px;&quot;&gt;Identity Directory&lt;/font&gt;&lt;br&gt;&lt;/font&gt;" style="text;html=1;align=center;verticalAlign=top;resizable=1;points=[[0,0.5,0,0,0],[0.21,1,0,0,0],[0.5,1,0,0,0],[0.85,1,0,0,0],[1,0.5,0,0,0]];autosize=0;strokeColor=none;fillColor=none;fontSize=12;fontColor=default;fontFamily=Helvetica;fixedWidth=1;imageWidth=24;whiteSpace=wrap;labelBackgroundColor=none;" vertex="1" parent="YkXKvpvC7lJtgDXOQDdZ-10">
          <mxGeometry y="46" width="110" height="30" as="geometry" />
        </mxCell>
        <mxCell id="YkXKvpvC7lJtgDXOQDdZ-12" value="" style="shape=image;verticalLabelPosition=bottom;labelBackgroundColor=default;verticalAlign=top;aspect=fixed;imageAspect=0;image=data:image/svg+xml,PHN2ZyB4bWxucz0iaHR0cDovL3d3dy53My5vcmcvMjAwMC9zdmciIGZpbGw9Im5vbmUiIHZpZXdCb3g9IjAgMCAxNiAxNiIgaGVpZ2h0PSIxNiIgd2lkdGg9IjE2Ij4mI3hhOzxjaXJjbGUgc3Ryb2tlLXdpZHRoPSIwLjI4NTcwOCIgc3Ryb2tlPSIjRDVEQUREIiBmaWxsPSJ1cmwoI3BhaW50MF9saW5lYXJfMzg5MF8yMTUyMCkiIHI9IjcuODU2OTYiIGN5PSI3Ljk5Nzg2IiBjeD0iNy45OTY4OSIvPiYjeGE7PGcgY2xpcC1wYXRoPSJ1cmwoI2NsaXAwXzM4OTBfMjE1MjApIj4mI3hhOzxwYXRoIGZpbGw9InVybCgjcGFpbnQxX2xpbmVhcl8zODkwXzIxNTIwKSIgZD0iTTQuNjg1NDQgMy43MTg5N0M0LjQxMzUxIDMuODI2NjkgNC4xNTU0IDMuOTczMiAzLjk1NjYzIDQuMTc1NkMzLjgyNjY3IDQuMzA3OTQgMy41OTcxNyA0LjU2MzU2IDMuNTk3MTcgNS4wNDU5NVY5LjcyMzMyQzMuNTk3NSAxMC41NDAyIDQuMjAwMzUgMTAuOTgxNSA0LjczNTk3IDExLjIwMDJDNS4zMDI3NCAxMS40MzE3IDYuMDIyOTMgMTEuNTIyNSA2LjcwOTUxIDExLjUyM0M2Ljc5OTU3IDExLjUyMyA2LjkzOTA4IDExLjUwNiA3LjA4NDQzIDExLjQ4NTRDNy4zNjE3MiAxMS40NDYzIDcuNTc1MjkgMTEuMjAzMiA3LjU3NTI5IDEwLjkyMzFDNy41NzUyOSAxMC42MDU2IDcuMzAzODEgMTAuMzcyOSA2Ljk4ODk1IDEwLjQxNDNDNi44ODA4MSAxMC40Mjg1IDYuNzgxMzIgMTAuNDM4NyA2LjcxMDEgMTAuNDM4N0M2LjA3OTEgMTAuNDM4MiA1LjQ4Mzc0IDEwLjM1MjIgNS4wNjQzNyAxMC4xODA5QzQuNjEzOTggOS45OTcwMiA0LjU2MDI3IDkuODA5OSA0LjU2MDI3IDkuNzIyNjVMNC41NTk3MyA5LjA1NzI2QzQuNzMyNzYgOS4xMTYxOCA0LjkxNDMzIDkuMTY0NTUgNS4wOTc4IDkuMjA0MTZDNS41OTkyMiA5LjMxMjQxIDYuMTY3NTkgOS4zNjYwNyA2LjcyODkxIDkuMzY3MzlDNi44MjA0MyA5LjM2NzYxIDYuODk5MTkgOS4zNjkwMSA2Ljk5MDcyIDkuMzY2NDJDNy4xNzE2OSA5LjM2MTMxIDcuMzEyMTggOS4yMTA2NSA3LjMxMjE4IDkuMDI5NjFDNy4zMTIxOCA4LjgzMDA1IDcuMTQyNjkgOC42NzMwOCA2Ljk0MzE5IDguNjc4MTNDNi44Njg0NiA4LjY4MDAzIDYuODA2MjQgOC42NzgzMSA2LjczMDk0IDguNjc4MTRDNi4yMTg0NyA4LjY3NjkyIDUuNzExMyA4LjYyNzU5IDUuMjc5MTggOC41MzQzQzQuOTc3NjYgOC40NjkyIDQuNzM1MTggOC4zODczNyA0LjU1NzQyIDguMjk5OTdMNC41NTYzIDcuNDg3OTRDNC43MzAzNiA3LjU0NzM5IDQuOTEzMTIgNy41OTYxNCA1LjA5NzggNy42MzYwMUM1LjU5OTIyIDcuNzQ0MjYgNi4xNjc1OSA3Ljc5NzkyIDYuNzI4OTEgNy43OTkyNUM3LjE5MDg2IDcuODAwMzQgNy42NTcwOSA3Ljc2NjAxIDguMDg2MDQgNy42OTM2M0M4LjU0MDMgNy42MzYwMSA4LjQ5MzQ0IDYuOTQyNjYgOC4wODYwNCA3LjAyMjgyQzcuNjc4NjQgNy4xMDI5OSA3LjIwODI5IDcuMTQzNjQgNi43MzA5NCA3LjE0MjUxQzYuMjE4NDcgNy4xNDEzIDUuNzExMyA3LjA5MTk3IDUuMjc5MTggNi45OTg2OEM0Ljk3NTcyIDYuOTMzMTYgNC43MzIwNyA2Ljg1MDcgNC41NTQwMSA2Ljc2MjY3TDQuNTUyNjcgNS45MDU4NEM0LjU5OTE2IDUuOTI2NzUgNC42NDYzMSA1Ljk0NjQgNC42OTM4NiA1Ljk2NDg4QzUuMjM5ODYgNi4xNzcxNyA1Ljk1NTIgNi4yODAxNCA2LjcwOTgxIDYuMjgwMTRDNy40NzA3MSA2LjI4MDE0IDguMTkzMDYgNi4xNzU0NSA4Ljc0MzE1IDUuOTU5NjdDOC43OTA2IDUuOTQxMDYgOC44Mzc2NSA1LjkyMTI4IDguODg0MDYgNS45MDAyNUw4Ljg4NDA2IDYuNTk0NzJMOC44ODE5NiA2LjM1ODk3QzguODgxNzcgNi41Njc0NCA5LjA1MDcyIDYuNzM2NTMgOS4yNTkxOSA2LjczNjUzSDkuMzY0NTVDOS42MzEwMyA2LjczNjUzIDkuODQ3MDUgNi41MjA1MSA5Ljg0NzA0IDYuMjU0MDNMOS44NDcwMSA1LjA0NTk1QzkuODQ3MDEgNC42NzY2IDkuNjgzOTcgNC4zODMxOCA5LjQ3NzM2IDQuMTc0MzFDOS4yNzcxNiAzLjk3MTkxIDkuMDE2NjYgMy44MjU3NiA4Ljc0MzAxIDMuNzE4NDFDOC4xOTI5MSAzLjUwMjY0IDcuNDcwNTYgMy4zOTc5NSA2LjcwOTY2IDMuMzk3OTVDNS45NDg3NiAzLjM5Nzk1IDUuMjMxNTYgMy41MDI2MyA0LjY4NTQ0IDMuNzE4OTdaIiBjbGlwLXJ1bGU9ImV2ZW5vZGQiIGZpbGwtcnVsZT0iZXZlbm9kZCIvPiYjeGE7PHBhdGggZmlsbD0idXJsKCNwYWludDJfbGluZWFyXzM4OTBfMjE1MjApIiBkPSJNMTAuNTUwMSA3LjQzNDQyQzEwLjU4NzQgNy4xOTU3IDEwLjgxMTIgNy4wMzI0NCAxMS4wNDk5IDcuMDY5NzdDMTEuOTA2NCA3LjIwMzcyIDEyLjc0ODggNy42MTA5IDEzLjQ0MTYgOC4zMDc1NkMxMy42MTIgOC40Nzg4OSAxMy42MTEzIDguNzU1OSAxMy40Mzk5IDguOTI2MjhDMTMuMjY4NiA5LjA5NjY2IDEyLjk5MTYgOS4wOTU5IDEyLjgyMTIgOC45MjQ1OEMxMi4yNjA2IDguMzYwODkgMTEuNTg4NiA4LjAzOTY1IDEwLjkxNDcgNy45MzQyNkMxMC42NzYgNy44OTY5MyAxMC41MTI4IDcuNjczMTQgMTAuNTUwMSA3LjQzNDQyWiIgY2xpcC1ydWxlPSJldmVub2RkIiBmaWxsLXJ1bGU9ImV2ZW5vZGQiLz4mI3hhOzxwYXRoIGZpbGw9InVybCgjcGFpbnQzX2xpbmVhcl8zODkwXzIxNTIwKSIgZD0iTTEwLjkzMzcgMTEuMTcwNEMxMC45MzM3IDEwLjkyODggMTAuNzM3OSAxMC43MzI5IDEwLjQ5NjIgMTAuNzMyOUMxMC4yNTQ2IDEwLjczMjkgMTAuMDU4NyAxMC45Mjg4IDEwLjA1ODcgMTEuMTcwNEMxMC4wNTg3IDExLjUxNCAxMC4xNTA4IDExLjg4MDIgMTAuMzM0MiAxMi4xNzY0QzEwLjM1MzEgMTIuMjA3IDEwLjM3MjIgMTIuMjM3NCAxMC4zOTUxIDEyLjI2NDlDMTAuNTM3NCAxMi40MzUgMTAuNzk0NiAxMi40NzM2IDEwLjk4MDMgMTIuMzQ1NEMxMS4xNzggMTIuMjA4OCAxMS4yMjg0IDExLjkzODUgMTEuMDkzOCAxMS43NEMxMC45ODg2IDExLjU3MzggMTAuOTMzNyAxMS4zNjU3IDEwLjkzMzcgMTEuMTcwNFoiLz4mI3hhOzxwYXRoIGZpbGw9InVybCgjcGFpbnQ0X2xpbmVhcl8zODkwXzIxNTIwKSIgZD0iTTEzLjI4NTYgMTAuOTAwM0MxMy4zMzE2IDkuNzc0MDMgMTIuNDY0NCA4LjgyOTkxIDExLjQ1NDkgOC40NTA4MUMxMC40MDkzIDguMDU4MTMgOS4xMDEzMSA4LjIxOTk5IDguMTk2MTIgOS4zOTc2OEM4LjA0ODg3IDkuNTg5MjUgOC4wODQ4IDkuODYzOTIgOC4yNzYzNyAxMC4wMTEyQzguNDY3OTUgMTAuMTU4NCA4Ljc0MjYyIDEwLjEyMjUgOC44ODk4NyA5LjkzMDkxQzkuNTI3MDIgOS4xMDE5NiAxMC40MDc4IDguOTkyMjQgMTEuMTQ3MyA5LjI2OTk1QzExLjkyMyA5LjU2MTI2IDEyLjQzNzMgMTAuMjI5NSAxMi40MTEzIDEwLjg2NDVDMTIuNDA2NSAxMC45ODI1IDEyLjM2NjcgMTEuMDQyNCAxMi4zMzYyIDExLjA3MjJDMTIuMzAxOCAxMS4xMDU5IDEyLjI1NzUgMTEuMTIyOSAxMi4yMTUxIDExLjEyMzdDMTIuMTczNiAxMS4xMjQ1IDEyLjE0MjUgMTEuMTEwMyAxMi4xMjE4IDExLjA4OTRDMTIuMTA0MSAxMS4wNzE3IDEyLjA2MzIgMTEuMDE4IDEyLjA2MzIgMTAuODgyNEMxMi4wNjMyIDEwLjUwODIgMTEuODI1NyAxMC4xMDcxIDExLjQ4MTMgOS44NDg2QzExLjExMDQgOS41NzAyMyAxMC41ODU2IDkuNDI4MDkgOS45Njg5NSA5LjU5ODI1TDkuOTU5OTIgOS42MDA3NUw5Ljk1MSA5LjYwMzYyQzkuMzYwNDcgOS43OTQxMiA4Ljk4Mzc5IDEwLjM0NjEgOC44OTkxNiAxMC45OTExQzguODEzNjkgMTEuNjQyNCA5LjAxMzc5IDEyLjQwODYgOS41NjU4NyAxMy4xNTM2QzkuNzA5NzMgMTMuMzQ3OCA5Ljk4MzczIDEzLjM4ODUgMTAuMTc3OSAxMy4yNDQ3QzEwLjM3MiAxMy4xMDA4IDEwLjQxMjcgMTIuODI2OCAxMC4yNjg5IDEyLjYzMjdDOS44MjU0NSAxMi4wMzQzIDkuNzE2MDcgMTEuNDkwOSA5Ljc2NjcyIDExLjEwNDlDOS44MTc1MSAxMC43MTc5IDEwLjAxNzcgMTAuNTA1NSAxMC4yMTE2IDEwLjQzOUMxMC41NTggMTAuMzQ2MyAxMC44MDAzIDEwLjQzMTUgMTAuOTU2IDEwLjU0ODRDMTEuMDM5NSAxMC42MTEgMTEuMTAxNCAxMC42ODU1IDExLjE0MDkgMTAuNzU0OUMxMS4xODMgMTAuODI2OSAxMS4xODY1IDEwLjg2MzUgMTEuMTg4OSAxMC45MjgzQzExLjE5ODQgMTEuMjM3OCAxMS4zMDUyIDExLjUwOTMgMTEuNTAxNSAxMS43MDY2QzExLjcwNDQgMTEuOTEwNSAxMS45NzIzIDEyLjAwMzYgMTIuMjMyIDExLjk5ODZDMTIuNzY0NiAxMS45ODgzIDEzLjI1ODIgMTEuNTcyMyAxMy4yODU2IDEwLjkwMDNaIi8+JiN4YTs8L2c+JiN4YTs8ZGVmcz4mI3hhOzxsaW5lYXJHcmFkaWVudCBncmFkaWVudFVuaXRzPSJ1c2VyU3BhY2VPblVzZSIgeTI9IjE0Ljc0NTgiIHgyPSIxMy42ODQ5IiB5MT0iMi4yNjg5NCIgeDE9IjEuNDQ3OTkiIGlkPSJwYWludDBfbGluZWFyXzM4OTBfMjE1MjAiPiYjeGE7PHN0b3Agc3RvcC1jb2xvcj0id2hpdGUiLz4mI3hhOzxzdG9wIHN0b3AtY29sb3I9IiNFQUVDRUUiIG9mZnNldD0iMSIvPiYjeGE7PC9saW5lYXJHcmFkaWVudD4mI3hhOzxsaW5lYXJHcmFkaWVudCBncmFkaWVudFVuaXRzPSJ1c2VyU3BhY2VPblVzZSIgeTI9IjguODQ0NTUiIHgyPSIxMC4wMzMzIiB5MT0iNC42MTI5OSIgeDE9IjQuNTM0MDUiIGlkPSJwYWludDFfbGluZWFyXzM4OTBfMjE1MjAiPiYjeGE7PHN0b3Agc3RvcC1jb2xvcj0iIzAxOTVGRiIvPiYjeGE7PHN0b3Agc3RvcC1jb2xvcj0iIzExNDdFOSIgb2Zmc2V0PSIwLjk5MTAyOCIvPiYjeGE7PC9saW5lYXJHcmFkaWVudD4mI3hhOzxsaW5lYXJHcmFkaWVudCBncmFkaWVudFVuaXRzPSJ1c2VyU3BhY2VPblVzZSIgeTI9IjExLjc5MjgiIHgyPSIxMy4yNjAyIiB5MT0iNy45ODYzNSIgeDE9IjguOTEzMjEiIGlkPSJwYWludDJfbGluZWFyXzM4OTBfMjE1MjAiPiYjeGE7PHN0b3Agc3RvcC1jb2xvcj0iIzEzNDhGRiIvPiYjeGE7PHN0b3Agc3RvcC1jb2xvcj0iIzA2MjM4RCIgb2Zmc2V0PSIxIi8+JiN4YTs8L2xpbmVhckdyYWRpZW50PiYjeGE7PGxpbmVhckdyYWRpZW50IGdyYWRpZW50VW5pdHM9InVzZXJTcGFjZU9uVXNlIiB5Mj0iMTEuNzkyOCIgeDI9IjEzLjI2MDIiIHkxPSI3Ljk4NjM1IiB4MT0iOC45MTMyMSIgaWQ9InBhaW50M19saW5lYXJfMzg5MF8yMTUyMCI+JiN4YTs8c3RvcCBzdG9wLWNvbG9yPSIjMTM0OEZGIi8+JiN4YTs8c3RvcCBzdG9wLWNvbG9yPSIjMDYyMzhEIiBvZmZzZXQ9IjEiLz4mI3hhOzwvbGluZWFyR3JhZGllbnQ+JiN4YTs8bGluZWFyR3JhZGllbnQgZ3JhZGllbnRVbml0cz0idXNlclNwYWNlT25Vc2UiIHkyPSIxMS43OTI4IiB4Mj0iMTMuMjYwMiIgeTE9IjcuOTg2MzUiIHgxPSI4LjkxMzIxIiBpZD0icGFpbnQ0X2xpbmVhcl8zODkwXzIxNTIwIj4mI3hhOzxzdG9wIHN0b3AtY29sb3I9IiMxMzQ4RkYiLz4mI3hhOzxzdG9wIHN0b3AtY29sb3I9IiMwNjIzOEQiIG9mZnNldD0iMSIvPiYjeGE7PC9saW5lYXJHcmFkaWVudD4mI3hhOzxjbGlwUGF0aCBpZD0iY2xpcDBfMzg5MF8yMTUyMCI+JiN4YTs8cmVjdCB0cmFuc2Zvcm09InRyYW5zbGF0ZSgzLjU5NzE3IDMuMzk3OTUpIiBmaWxsPSJ3aGl0ZSIgaGVpZ2h0PSIxMCIgd2lkdGg9IjEwIi8+JiN4YTs8L2NsaXBQYXRoPiYjeGE7PC9kZWZzPiYjeGE7PC9zdmc+;" vertex="1" parent="YkXKvpvC7lJtgDXOQDdZ-9">
          <mxGeometry x="30" y="-2" width="48" height="48" as="geometry" />
        </mxCell>
        <mxCell id="YkXKvpvC7lJtgDXOQDdZ-13" value="" style="group" vertex="1" connectable="0" parent="1">
          <mxGeometry x="1334" y="993.0799999999999" width="110" height="114" as="geometry" />
        </mxCell>
        <mxCell id="YkXKvpvC7lJtgDXOQDdZ-14" value="" style="group" vertex="1" connectable="0" parent="YkXKvpvC7lJtgDXOQDdZ-13">
          <mxGeometry x="3" y="12" width="110" height="95" as="geometry" />
        </mxCell>
        <mxCell id="YkXKvpvC7lJtgDXOQDdZ-15" value="&lt;font color=&quot;#1d2d3e&quot; face=&quot;arial&quot;&gt;&lt;font style=&quot;font-size: 14px;&quot;&gt;Identity Provisioning&lt;/font&gt;&lt;br&gt;&lt;/font&gt;" style="text;html=1;align=center;verticalAlign=top;resizable=1;points=[[0,0.5,0,0,0],[0.21,1,0,0,0],[0.5,1,0,0,0],[0.85,1,0,0,0],[1,0.5,0,0,0]];autosize=0;strokeColor=none;fillColor=none;fontSize=12;fontColor=default;fontFamily=Helvetica;fixedWidth=1;imageWidth=24;whiteSpace=wrap;labelBackgroundColor=none;" vertex="1" parent="YkXKvpvC7lJtgDXOQDdZ-14">
          <mxGeometry x="-4.5" y="73" width="110" height="43" as="geometry" />
        </mxCell>
        <mxCell id="YkXKvpvC7lJtgDXOQDdZ-16" value="" style="shape=image;verticalLabelPosition=bottom;labelBackgroundColor=default;verticalAlign=top;aspect=fixed;imageAspect=0;image=data:image/svg+xml,PHN2ZyB4bWxucz0iaHR0cDovL3d3dy53My5vcmcvMjAwMC9zdmciIGZpbGw9Im5vbmUiIHZpZXdCb3g9IjAgMCAxNiAxNiIgaGVpZ2h0PSIxNiIgd2lkdGg9IjE2Ij4mI3hhOzxjaXJjbGUgc3Ryb2tlLXdpZHRoPSIwLjI4NTcwOCIgc3Ryb2tlPSIjRDVEQUREIiBmaWxsPSJ1cmwoI3BhaW50MF9saW5lYXJfMzg5MF8yMTUxNCkiIHI9IjcuODU2OTYiIGN5PSI3Ljk5Nzg2IiBjeD0iNy45OTg4NCIvPiYjeGE7PHBhdGggZmlsbD0idXJsKCNwYWludDFfbGluZWFyXzM4OTBfMjE1MTQpIiBkPSJNOS45NTE5NCA3LjUxODg5QzkuOTg5MjcgNy4yODAxNyAxMC4yMTMxIDcuMTE2OTEgMTAuNDUxOCA3LjE1NDI0QzExLjMwODMgNy4yODgxOSAxMi4xNTA3IDcuNjk1MzcgMTIuODQzNSA4LjM5MjA0QzEzLjAxMzkgOC41NjMzNiAxMy4wMTMxIDguODQwMzcgMTIuODQxOCA5LjAxMDc1QzEyLjY3MDUgOS4xODExNCAxMi4zOTM1IDkuMTgwMzcgMTIuMjIzMSA5LjAwOTA1QzExLjY2MjUgOC40NDUzNiAxMC45OTA1IDguMTI0MTIgMTAuMzE2NiA4LjAxODczQzEwLjA3NzkgNy45ODE0IDkuOTE0NjEgNy43NTc2MSA5Ljk1MTk0IDcuNTE4ODlaIiBjbGlwLXJ1bGU9ImV2ZW5vZGQiIGZpbGwtcnVsZT0iZXZlbm9kZCIvPiYjeGE7PHBhdGggZmlsbD0idXJsKCNwYWludDJfbGluZWFyXzM4OTBfMjE1MTQpIiBkPSJNMTAuMzM1NiAxMS4yNTQ5QzEwLjMzNTYgMTEuMDEzMyAxMC4xMzk3IDEwLjgxNzQgOS44OTgwOSAxMC44MTc0QzkuNjU2NDcgMTAuODE3NCA5LjQ2MDU5IDExLjAxMzMgOS40NjA1OSAxMS4yNTQ5QzkuNDYwNTkgMTEuNTk4NSA5LjU1MjY0IDExLjk2NDYgOS43MzYwMSAxMi4yNjA5QzkuNzU0OTQgMTIuMjkxNCA5Ljc3NDAxIDEyLjMyMTkgOS43OTY5NyAxMi4zNDkzQzkuOTM5MjIgMTIuNTE5NSAxMC4xOTY1IDEyLjU1ODEgMTAuMzgyMiAxMi40Mjk4QzEwLjU3OTkgMTIuMjkzMiAxMC42MzAyIDEyLjAyMjkgMTAuNDk1NiAxMS44MjQ0QzEwLjM5MDQgMTEuNjU4MyAxMC4zMzU2IDExLjQ1MDIgMTAuMzM1NiAxMS4yNTQ5WiIvPiYjeGE7PHBhdGggZmlsbD0idXJsKCNwYWludDNfbGluZWFyXzM4OTBfMjE1MTQpIiBkPSJNMTIuNjg3NSAxMC45ODQ3QzEyLjczMzUgOS44NTg1IDExLjg2NjIgOC45MTQzOCAxMC44NTY4IDguNTM1MjlDOS44MTExMiA4LjE0MjYgOC41MDMxNyA4LjMwNDQ2IDcuNTk3OTcgOS40ODIxNUM3LjQ1MDcyIDkuNjczNzIgNy40ODY2NiA5Ljk0ODM5IDcuNjc4MjMgMTAuMDk1NkM3Ljg2OTggMTAuMjQyOSA4LjE0NDQ3IDEwLjIwNyA4LjI5MTcyIDEwLjAxNTRDOC45Mjg4NyA5LjE4NjQzIDkuODA5NjQgOS4wNzY3MSAxMC41NDkxIDkuMzU0NDNDMTEuMzI0OCA5LjY0NTczIDExLjgzOTEgMTAuMzE0IDExLjgxMzIgMTAuOTQ5QzExLjgwODQgMTEuMDY3IDExLjc2ODYgMTEuMTI2OSAxMS43MzgxIDExLjE1NjdDMTEuNzAzNyAxMS4xOTA0IDExLjY1OTMgMTEuMjA3NCAxMS42MTcgMTEuMjA4MkMxMS41NzU1IDExLjIwOSAxMS41NDQ0IDExLjE5NDcgMTEuNTIzNyAxMS4xNzM5QzExLjUwNiAxMS4xNTYxIDExLjQ2NSAxMS4xMDI0IDExLjQ2NSAxMC45NjY5QzExLjQ2NSAxMC41OTI2IDExLjIyNzYgMTAuMTkxNiAxMC44ODMxIDkuOTMzMDhDMTAuNTEyMyA5LjY1NDcxIDkuOTg3NSA5LjUxMjU3IDkuMzcwODEgOS42ODI3M0w5LjM2MTc4IDkuNjg1MjJMOS4zNTI4NiA5LjY4ODA5QzguNzYyMzIgOS44Nzg1OSA4LjM4NTY1IDEwLjQzMDYgOC4zMDEwMSAxMS4wNzU1QzguMjE1NTQgMTEuNzI2OSA4LjQxNTY1IDEyLjQ5MzEgOC45Njc3MyAxMy4yMzgxQzkuMTExNTkgMTMuNDMyMiA5LjM4NTU4IDEzLjQ3MyA5LjU3OTcxIDEzLjMyOTFDOS43NzM4NSAxMy4xODUzIDkuODE0NiAxMi45MTEzIDkuNjcwNzQgMTIuNzE3MUM5LjIyNzMxIDEyLjExODggOS4xMTc5MyAxMS41NzUzIDkuMTY4NTggMTEuMTg5NEM5LjIxOTM2IDEwLjgwMjQgOS40MTk1NSAxMC41OSA5LjYxMzQ2IDEwLjUyMzVDOS45NTk4OCAxMC40MzA4IDEwLjIwMjIgMTAuNTE2IDEwLjM1NzkgMTAuNjMyOUMxMC40NDEzIDEwLjY5NTUgMTAuNTAzMyAxMC43NyAxMC41NDI4IDEwLjgzOTRDMTAuNTg0OCAxMC45MTE0IDEwLjU4ODMgMTAuOTQ4IDEwLjU5MDcgMTEuMDEyOEMxMC42MDAzIDExLjMyMjMgMTAuNzA3MSAxMS41OTM3IDEwLjkwMzQgMTEuNzkxMUMxMS4xMDYzIDExLjk5NSAxMS4zNzQxIDEyLjA4ODEgMTEuNjMzOSAxMi4wODNDMTIuMTY2NCAxMi4wNzI3IDEyLjY2IDExLjY1NjggMTIuNjg3NSAxMC45ODQ3WiIvPiYjeGE7PHBhdGggZmlsbD0idXJsKCNwYWludDRfbGluZWFyXzM4OTBfMjE1MTQpIiBkPSJNOC41NzMzMSA3LjI4NTg0QzguMzc4MDUgNy40ODExMSA4LjA2MTQ3IDcuNDgxMTEgNy44NjYyMSA3LjI4NTg1QzcuNjcwOTQgNy4wOTA1OSA3LjY3MDk0IDYuNzc0IDcuODY2MiA2LjU3ODc0TDguNTI5OCA1LjkxNTEzSDQuNTcwNzdDNC4yOTQ2MiA1LjkxNTEzIDQuMDcwNzcgNS42OTEyNyA0LjA3MDc3IDUuNDE1MTNDNC4wNzA3NyA1LjEzODk5IDQuMjk0NjIgNC45MTUxMyA0LjU3MDc3IDQuOTE1MTNIOC41Mjk4MUw3Ljg2NjIgNC4yNTE1QzcuNjcwOTQgNC4wNTYyMyA3LjY3MDk0IDMuNzM5NjUgNy44NjYyMSAzLjU0NDM5QzguMDYxNDcgMy4zNDkxMyA4LjM3ODA1IDMuMzQ5MTQgOC41NzMzMSAzLjU0NDRMMTAuMDkwNSA1LjA2MTU4QzEwLjI4NTcgNS4yNTY4NCAxMC4yODU3IDUuNTczNDIgMTAuMDkwNSA1Ljc2ODY4TDguNTczMzEgNy4yODU4NFoiLz4mI3hhOzxwYXRoIGZpbGw9InVybCgjcGFpbnQ1X2xpbmVhcl8zODkwXzIxNTE0KSIgZD0iTTQuNjYyNjEgNi43NzE2MkM0Ljg1Nzg3IDYuNTc2MzUgNS4xNzQ0NSA2LjU3NjM1IDUuMzY5NzIgNi43NzE2MUM1LjU2NDk4IDYuOTY2ODcgNS41NjQ5OCA3LjI4MzQ2IDUuMzY5NzIgNy40Nzg3Mkw0LjcwNjEyIDguMTQyMzNINi40MTIzOEM2LjY4ODUyIDguMTQyMzMgNi45MTIzOCA4LjM2NjE5IDYuOTEyMzggOC42NDIzM0M2LjkxMjM4IDguOTE4NDcgNi42ODg1MiA5LjE0MjMzIDYuNDEyMzggOS4xNDIzM0g0LjcwNjExTDUuMzY5NzIgOS44MDU5NkM1LjU2NDk4IDEwLjAwMTIgNS41NjQ5OCAxMC4zMTc4IDUuMzY5NzIgMTAuNTEzMUM1LjE3NDQ1IDEwLjcwODMgNC44NTc4NyAxMC43MDgzIDQuNjYyNjEgMTAuNTEzMUwzLjE0NTQ3IDguOTk1ODhDMi45NTAyMSA4LjgwMDYyIDIuOTUwMjEgOC40ODQwNCAzLjE0NTQ3IDguMjg4NzhMNC42NjI2MSA2Ljc3MTYyWiIvPiYjeGE7PGRlZnM+JiN4YTs8bGluZWFyR3JhZGllbnQgZ3JhZGllbnRVbml0cz0idXNlclNwYWNlT25Vc2UiIHkyPSIxNC43NDU4IiB4Mj0iMTMuNjg2OSIgeTE9IjIuMjY4OTQiIHgxPSIxLjQ0OTk1IiBpZD0icGFpbnQwX2xpbmVhcl8zODkwXzIxNTE0Ij4mI3hhOzxzdG9wIHN0b3AtY29sb3I9IndoaXRlIi8+JiN4YTs8c3RvcCBzdG9wLWNvbG9yPSIjRUFFQ0VFIiBvZmZzZXQ9IjEiLz4mI3hhOzwvbGluZWFyR3JhZGllbnQ+JiN4YTs8bGluZWFyR3JhZGllbnQgZ3JhZGllbnRVbml0cz0idXNlclNwYWNlT25Vc2UiIHkyPSIxMS44NzczIiB4Mj0iMTIuNjYyMSIgeTE9IjguMDcwODIiIHgxPSI4LjMxNTA2IiBpZD0icGFpbnQxX2xpbmVhcl8zODkwXzIxNTE0Ij4mI3hhOzxzdG9wIHN0b3AtY29sb3I9IiMxMzQ4RkYiLz4mI3hhOzxzdG9wIHN0b3AtY29sb3I9IiMwNjIzOEQiIG9mZnNldD0iMSIvPiYjeGE7PC9saW5lYXJHcmFkaWVudD4mI3hhOzxsaW5lYXJHcmFkaWVudCBncmFkaWVudFVuaXRzPSJ1c2VyU3BhY2VPblVzZSIgeTI9IjExLjg3NzMiIHgyPSIxMi42NjIxIiB5MT0iOC4wNzA4MiIgeDE9IjguMzE1MDYiIGlkPSJwYWludDJfbGluZWFyXzM4OTBfMjE1MTQiPiYjeGE7PHN0b3Agc3RvcC1jb2xvcj0iIzEzNDhGRiIvPiYjeGE7PHN0b3Agc3RvcC1jb2xvcj0iIzA2MjM4RCIgb2Zmc2V0PSIxIi8+JiN4YTs8L2xpbmVhckdyYWRpZW50PiYjeGE7PGxpbmVhckdyYWRpZW50IGdyYWRpZW50VW5pdHM9InVzZXJTcGFjZU9uVXNlIiB5Mj0iMTEuODc3MyIgeDI9IjEyLjY2MjEiIHkxPSI4LjA3MDgyIiB4MT0iOC4zMTUwNiIgaWQ9InBhaW50M19saW5lYXJfMzg5MF8yMTUxNCI+JiN4YTs8c3RvcCBzdG9wLWNvbG9yPSIjMTM0OEZGIi8+JiN4YTs8c3RvcCBzdG9wLWNvbG9yPSIjMDYyMzhEIiBvZmZzZXQ9IjEiLz4mI3hhOzwvbGluZWFyR3JhZGllbnQ+JiN4YTs8bGluZWFyR3JhZGllbnQgZ3JhZGllbnRVbml0cz0idXNlclNwYWNlT25Vc2UiIHkyPSI5LjU1MzU0IiB4Mj0iOS4xNjg1IiB5MT0iNC40ODM4NyIgeDE9IjQuMDg0MDEiIGlkPSJwYWludDRfbGluZWFyXzM4OTBfMjE1MTQiPiYjeGE7PHN0b3Agc3RvcC1jb2xvcj0iIzAxOTVGRiIvPiYjeGE7PHN0b3Agc3RvcC1jb2xvcj0iIzExNDdFOSIgb2Zmc2V0PSIwLjk5MTAyOCIvPiYjeGE7PC9saW5lYXJHcmFkaWVudD4mI3hhOzxsaW5lYXJHcmFkaWVudCBncmFkaWVudFVuaXRzPSJ1c2VyU3BhY2VPblVzZSIgeTI9IjkuNTUzNTQiIHgyPSI5LjE2ODUiIHkxPSI0LjQ4Mzg3IiB4MT0iNC4wODQwMSIgaWQ9InBhaW50NV9saW5lYXJfMzg5MF8yMTUxNCI+JiN4YTs8c3RvcCBzdG9wLWNvbG9yPSIjMDE5NUZGIi8+JiN4YTs8c3RvcCBzdG9wLWNvbG9yPSIjMTE0N0U5IiBvZmZzZXQ9IjAuOTkxMDI4Ii8+JiN4YTs8L2xpbmVhckdyYWRpZW50PiYjeGE7PC9kZWZzPiYjeGE7PC9zdmc+;" vertex="1" parent="YkXKvpvC7lJtgDXOQDdZ-13">
          <mxGeometry x="29" y="38" width="48" height="48" as="geometry" />
        </mxCell>
        <mxCell id="YkXKvpvC7lJtgDXOQDdZ-17" value="" style="group" vertex="1" connectable="0" parent="1">
          <mxGeometry x="1468" y="996.0799999999999" width="131" height="95" as="geometry" />
        </mxCell>
        <mxCell id="YkXKvpvC7lJtgDXOQDdZ-18" value="" style="group" vertex="1" connectable="0" parent="YkXKvpvC7lJtgDXOQDdZ-17">
          <mxGeometry x="-11" y="37" width="131" height="95" as="geometry" />
        </mxCell>
        <mxCell id="YkXKvpvC7lJtgDXOQDdZ-19" value="&lt;font color=&quot;#1d2d3e&quot; face=&quot;arial&quot; style=&quot;&quot;&gt;&lt;font style=&quot;font-size: 14px;&quot;&gt;Authorization Management&lt;/font&gt;&lt;br&gt;&lt;/font&gt;" style="text;html=1;align=center;verticalAlign=top;resizable=1;points=[[0,0.5,0,0,0],[0.21,1,0,0,0],[0.5,1,0,0,0],[0.85,1,0,0,0],[1,0.5,0,0,0]];autosize=0;strokeColor=none;fillColor=none;fontSize=12;fontColor=default;fontFamily=Helvetica;fixedWidth=1;imageWidth=24;whiteSpace=wrap;labelBackgroundColor=none;" vertex="1" parent="YkXKvpvC7lJtgDXOQDdZ-18">
          <mxGeometry x="-21" y="49" width="152" height="38" as="geometry" />
        </mxCell>
        <mxCell id="YkXKvpvC7lJtgDXOQDdZ-20" value="" style="shape=image;verticalLabelPosition=bottom;labelBackgroundColor=default;verticalAlign=top;aspect=fixed;imageAspect=0;image=data:image/svg+xml,PHN2ZyB4bWxucz0iaHR0cDovL3d3dy53My5vcmcvMjAwMC9zdmciIGZpbGw9Im5vbmUiIHZpZXdCb3g9IjAgMCAxNiAxNiIgaGVpZ2h0PSIxNiIgd2lkdGg9IjE2Ij4mI3hhOzxjaXJjbGUgc3Ryb2tlLXdpZHRoPSIwLjI4NTcwOCIgc3Ryb2tlPSIjRDVEQUREIiBmaWxsPSJ1cmwoI3BhaW50MF9saW5lYXJfMzg5MF8yMTUxOSkiIHI9IjcuODU2OTYiIGN5PSI3Ljk5Nzg2IiBjeD0iNy45OTczOCIvPiYjeGE7PGcgY2xpcC1wYXRoPSJ1cmwoI2NsaXAwXzM4OTBfMjE1MTkpIj4mI3hhOzxwYXRoIGZpbGw9InVybCgjcGFpbnQxX2xpbmVhcl8zODkwXzIxNTE5KSIgZD0iTTcuNzA5MDUgMTEuMjEwNUg3LjE0MjUyQzYuOTQ4MjggMTEuMjEwNSA2Ljc3MDIzIDExLjE0OTQgNi42MDgzNiAxMS4wMjczQzYuNDU3MjkgMTAuOTE1NCA2LjM2NTU2IDEwLjc2NzkgNi4zMzMxOSAxMC41ODQ4TDYuMjE5ODggMTAuMDgxM0w1LjUyMzg2IDkuNjg0NTdMNS4wMzgyNiA5Ljg4Mjk0QzQuOTMwMzUgOS45MTM0NiA0LjgyNzg0IDkuOTI4NzEgNC43MzA3MiA5LjkyODcxQzQuNTc5NjQgOS45Mjg3MSA0LjQzMzk2IDkuODkzMTEgNC4yOTM2OCA5LjgyMTlDNC4xNjQxOSA5Ljc1MDY5IDQuMDYxNjcgOS42NDM4OCAzLjk4NjEzIDkuNTAxNDdMMy42Nzg1OSA4LjkzNjg5QzMuNjI0NjMgOC44MTQ4MiAzLjU5NzY2IDguNzAyOTIgMy41OTc2NiA4LjYwMTJDMy41OTc2NiA4LjMzNjcxIDMuNzEwOTYgOC4xMjMwOSAzLjkzNzU3IDcuOTYwMzNMNC4zMDk4NyA3LjcwMDkzVjYuOTA3NDdMMy45MjEzOSA2LjYzMjgxQzMuNzA1NTcgNi40ODAyMyAzLjU5NzY2IDYuMjcxNjkgMy41OTc2NiA2LjAwNzJDMy41OTc2NiA1LjkwNTQ4IDMuNjI0NjMgNS43OTM1OCAzLjY3ODU5IDUuNjcxNTFMMy45ODYxMyA1LjEwNjkzQzQuMDYxNjcgNC45NjQ1MiA0LjE2NDE5IDQuODU3NzEgNC4yOTM2OCA0Ljc4NjVDNC40MzM5NiA0LjcxNTI5IDQuNTc5NjQgNC42Nzk2OSA0LjczMDcyIDQuNjc5NjlDNC44NDk0MiA0LjY3OTY5IDQuOTUxOTMgNC43MDAwMyA1LjAzODI2IDQuNzQwNzJMNS41MjM4NiA0LjkyMzgzTDYuMjE5ODggNC41MjcxTDYuMzMzMTkgNC4wMjM1NkM2LjM3NjM1IDMuODQwNDUgNi40NzM0NyAzLjY5Mjk1IDYuNjI0NTUgMy41ODEwNUM2Ljc3NTYyIDMuNDU4OTggNi45NDgyOCAzLjM5Nzk1IDcuMTQyNTIgMy4zOTc5NUg3LjcwOTA1QzcuOTAzMjkgMy4zOTc5NSA4LjA3NTk0IDMuNDU4OTggOC4yMjcwMiAzLjU4MTA1QzguMzc4MDkgMy42OTI5NSA4LjQ3NTIxIDMuODQwNDUgOC41MTgzOCA0LjAyMzU2TDguNjE1NSA0LjUyNzFMOS4zMjc3MSA0LjkyMzgzTDkuODEzMyA0Ljc0MDcyQzkuODk5NjMgNC43MDAwMyAxMC4wMDIxIDQuNjc5NjkgMTAuMTIwOCA0LjY3OTY5QzEwLjI3MTkgNC42Nzk2OSAxMC40MTIyIDQuNzE1MjkgMTAuNTQxNyA0Ljc4NjVDMTAuNjgyIDQuODU3NzEgMTAuNzg5OSA0Ljk2NDUyIDEwLjg2NTQgNS4xMDY5M0wxMS4xNTY4IDUuNjcxNTFDMTEuMjIxNSA1Ljc3MzI0IDExLjI1MzkgNS44OTAyMiAxMS4yNTM5IDYuMDIyNDZDMTEuMjUzOSA2LjA2NTc2IDExLjI1MDYgNi4xMDc1OSAxMS4yNDQxIDYuMTQ3OTRDMTAuMzkxNCA2LjA2MTQzIDkuNjkzNzEgNi40NDA1MiA5LjU1Mzg3IDcuNDE5NzRDOS41NTM4NyA3LjQxOTc0IDkuMzk4MjMgNy40Mjg2MyA5LjA2MTgxIDcuNTY5NDNDOS4wNzcyMSA3LjQ4Mjg0IDkuMDg0OTEgNy4zOTQ0MyA5LjA4NDkxIDcuMzA0MkM5LjA4NDkxIDcuMDkwNTggOS4wNDE3NCA2Ljg5MjIxIDguOTU1NDEgNi43MDkxMUM4Ljg2OTA5IDYuNTE1ODMgOC43NTAzOCA2LjM0Nzk4IDguNTk5MzEgNi4yMDU1N0M4LjQ0ODI0IDYuMDYzMTUgOC4yNzAxOCA1Ljk1MTI1IDguMDY1MTUgNS44Njk4N0M3Ljg2MDEyIDUuNzg4NDkgNy42NDQzIDUuNzQ3OCA3LjQxNzY5IDUuNzQ3OEM3LjE5MTA4IDUuNzQ3OCA2Ljk3NTI2IDUuNzg4NDkgNi43NzAyMyA1Ljg2OTg3QzYuNTc1OTkgNS45NTEyNSA2LjQwMzMzIDYuMDYzMTUgNi4yNTIyNiA2LjIwNTU3QzYuMTAxMTggNi4zNDc5OCA1Ljk4MjQ4IDYuNTE1ODMgNS44OTYxNSA2LjcwOTExQzUuODA5ODIgNi44OTIyMSA1Ljc2NjY2IDcuMDkwNTggNS43NjY2NiA3LjMwNDJDNS43NjY2NiA3LjUxNzgyIDUuODA5ODIgNy43MjEyNyA1Ljg5NjE1IDcuOTE0NTVDNS45ODI0OCA4LjA5NzY2IDYuMTAxMTggOC4yNjA0MiA2LjI1MjI2IDguNDAyODNDNi40MDMzMyA4LjU0NTI1IDYuNTc1OTkgOC42NTcxNSA2Ljc3MDIzIDguNzM4NTNDNi45NzAxNyA4LjgxNzg5IDcuMTgwMzcgOC44NTg1NSA3LjQwMDgzIDguODYwNTJDNy4xMTExNiA5LjI0NjEgNy4wNTE5MiA5LjU2OTg4IDcuMTc4NzEgMTAuMTc3NEM3LjM2ODA5IDEwLjYxNzkgNy41MzA1MiAxMC43OTQgNy44OTkzNiAxMS4wMDgzQzcuODk5MzYgMTEuMDA4MyA3Ljg4NzAzIDExLjA3MzggNy44ODA5IDExLjE5MzRDNy44MjU2MyAxMS4yMDQ4IDcuNzY4MzQgMTEuMjEwNSA3LjcwOTA1IDExLjIxMDVaIi8+JiN4YTs8cGF0aCBmaWxsPSJ1cmwoI3BhaW50Ml9saW5lYXJfMzg5MF8yMTUxOSkiIGQ9Ik0xMC41NTA2IDcuNDkzMDFDMTAuNTg3OSA3LjI1NDI5IDEwLjgxMTcgNy4wOTEwMyAxMS4wNTA0IDcuMTI4MzZDMTEuOTA2OSA3LjI2MjMxIDEyLjc0OTMgNy42Njk0OSAxMy40NDIxIDguMzY2MTZDMTMuNjEyNSA4LjUzNzQ4IDEzLjYxMTggOC44MTQ0OSAxMy40NDA0IDguOTg0ODdDMTMuMjY5MSA5LjE1NTI2IDEyLjk5MjEgOS4xNTQ0OSAxMi44MjE3IDguOTgzMTdDMTIuMjYxMSA4LjQxOTQ4IDExLjU4OTEgOC4wOTgyNSAxMC45MTUyIDcuOTkyODZDMTAuNjc2NSA3Ljk1NTUyIDEwLjUxMzIgNy43MzE3NCAxMC41NTA2IDcuNDkzMDFaIiBjbGlwLXJ1bGU9ImV2ZW5vZGQiIGZpbGwtcnVsZT0iZXZlbm9kZCIvPiYjeGE7PHBhdGggZmlsbD0idXJsKCNwYWludDNfbGluZWFyXzM4OTBfMjE1MTkpIiBkPSJNMTAuOTM0MiAxMS4yMjlDMTAuOTM0MiAxMC45ODc0IDEwLjczODMgMTAuNzkxNSAxMC40OTY3IDEwLjc5MTVDMTAuMjU1MSAxMC43OTE1IDEwLjA1OTIgMTAuOTg3NCAxMC4wNTkyIDExLjIyOUMxMC4wNTkyIDExLjU3MjYgMTAuMTUxMyAxMS45Mzg4IDEwLjMzNDYgMTIuMjM1QzEwLjM1MzYgMTIuMjY1NSAxMC4zNzI2IDEyLjI5NiAxMC4zOTU2IDEyLjMyMzVDMTAuNTM3OSAxMi40OTM2IDEwLjc5NTEgMTIuNTMyMiAxMC45ODA4IDEyLjQwMzlDMTEuMTc4NSAxMi4yNjczIDExLjIyODggMTEuOTk3MSAxMS4wOTQzIDExLjc5ODZDMTAuOTg5IDExLjYzMjQgMTAuOTM0MiAxMS40MjQzIDEwLjkzNDIgMTEuMjI5WiIvPiYjeGE7PHBhdGggZmlsbD0idXJsKCNwYWludDRfbGluZWFyXzM4OTBfMjE1MTkpIiBkPSJNMTMuMjg2MSAxMC45NTg5QzEzLjMzMjEgOS44MzI2MiAxMi40NjQ5IDguODg4NSAxMS40NTU0IDguNTA5NDFDMTAuNDA5NyA4LjExNjcyIDkuMTAxOCA4LjI3ODU4IDguMTk2NiA5LjQ1NjI3QzguMDQ5MzYgOS42NDc4NCA4LjA4NTI5IDkuOTIyNTEgOC4yNzY4NiAxMC4wNjk4QzguNDY4NDQgMTAuMjE3IDguNzQzMTEgMTAuMTgxMSA4Ljg5MDM1IDkuOTg5NUM5LjUyNzUgOS4xNjA1NSAxMC40MDgzIDkuMDUwODMgMTEuMTQ3OCA5LjMyODU1QzExLjkyMzUgOS42MTk4NSAxMi40Mzc4IDEwLjI4ODEgMTIuNDExOCAxMC45MjMxQzEyLjQwNyAxMS4wNDExIDEyLjM2NzIgMTEuMTAxIDEyLjMzNjcgMTEuMTMwOEMxMi4zMDIzIDExLjE2NDUgMTIuMjU4IDExLjE4MTUgMTIuMjE1NiAxMS4xODIzQzEyLjE3NDEgMTEuMTgzMSAxMi4xNDMgMTEuMTY4OSAxMi4xMjIzIDExLjE0OEMxMi4xMDQ2IDExLjEzMDIgMTIuMDYzNyAxMS4wNzY2IDEyLjA2MzcgMTAuOTQxQzEyLjA2MzcgMTAuNTY2NyAxMS44MjYyIDEwLjE2NTcgMTEuNDgxOCA5LjkwNzJDMTEuMTEwOSA5LjYyODgzIDEwLjU4NjEgOS40ODY2OSA5Ljk2OTQ0IDkuNjU2ODVMOS45NjA0MSA5LjY1OTM0TDkuOTUxNDkgOS42NjIyMkM5LjM2MDk1IDkuODUyNzIgOC45ODQyOCAxMC40MDQ3IDguODk5NjUgMTEuMDQ5N0M4LjgxNDE3IDExLjcwMSA5LjAxNDI4IDEyLjQ2NzIgOS41NjYzNiAxMy4yMTIyQzkuNzEwMjIgMTMuNDA2NCA5Ljk4NDIyIDEzLjQ0NzEgMTAuMTc4MyAxMy4zMDMzQzEwLjM3MjUgMTMuMTU5NCAxMC40MTMyIDEyLjg4NTQgMTAuMjY5NCAxMi42OTEzQzkuODI1OTQgMTIuMDkyOSA5LjcxNjU2IDExLjU0OTUgOS43NjcyMSAxMS4xNjM1QzkuODE3OTkgMTAuNzc2NSAxMC4wMTgyIDEwLjU2NDEgMTAuMjEyMSAxMC40OTc2QzEwLjU1ODUgMTAuNDA0OSAxMC44MDA4IDEwLjQ5MDEgMTAuOTU2NSAxMC42MDdDMTEuMDQgMTAuNjY5NiAxMS4xMDE5IDEwLjc0NDEgMTEuMTQxNCAxMC44MTM1QzExLjE4MzUgMTAuODg1NSAxMS4xODcgMTAuOTIyMSAxMS4xODk0IDEwLjk4NjlDMTEuMTk4OSAxMS4yOTY0IDExLjMwNTcgMTEuNTY3OSAxMS41MDIgMTEuNzY1MkMxMS43MDQ5IDExLjk2OTEgMTEuOTcyOCAxMi4wNjIyIDEyLjIzMjUgMTIuMDU3MkMxMi43NjUxIDEyLjA0NjkgMTMuMjU4NiAxMS42MzA5IDEzLjI4NjEgMTAuOTU4OVoiLz4mI3hhOzwvZz4mI3hhOzxkZWZzPiYjeGE7PGxpbmVhckdyYWRpZW50IGdyYWRpZW50VW5pdHM9InVzZXJTcGFjZU9uVXNlIiB5Mj0iMTQuNzQ1OCIgeDI9IjEzLjY4NTQiIHkxPSIyLjI2ODk0IiB4MT0iMS40NDg0OCIgaWQ9InBhaW50MF9saW5lYXJfMzg5MF8yMTUxOSI+JiN4YTs8c3RvcCBzdG9wLWNvbG9yPSJ3aGl0ZSIvPiYjeGE7PHN0b3Agc3RvcC1jb2xvcj0iI0VBRUNFRSIgb2Zmc2V0PSIxIi8+JiN4YTs8L2xpbmVhckdyYWRpZW50PiYjeGE7PGxpbmVhckdyYWRpZW50IGdyYWRpZW50VW5pdHM9InVzZXJTcGFjZU9uVXNlIiB5Mj0iOS45Mjc5NSIgeDI9IjEwLjIxNDYiIHkxPSI0LjU2NjI2IiB4MT0iNC43NDUzNiIgaWQ9InBhaW50MV9saW5lYXJfMzg5MF8yMTUxOSI+JiN4YTs8c3RvcCBzdG9wLWNvbG9yPSIjMDE5NUZGIi8+JiN4YTs8c3RvcCBzdG9wLWNvbG9yPSIjMTE0N0U5IiBvZmZzZXQ9IjAuOTkxMDI4Ii8+JiN4YTs8L2xpbmVhckdyYWRpZW50PiYjeGE7PGxpbmVhckdyYWRpZW50IGdyYWRpZW50VW5pdHM9InVzZXJTcGFjZU9uVXNlIiB5Mj0iMTEuODUxNCIgeDI9IjEzLjI2MDciIHkxPSI4LjA0NDk0IiB4MT0iOC45MTM3IiBpZD0icGFpbnQyX2xpbmVhcl8zODkwXzIxNTE5Ij4mI3hhOzxzdG9wIHN0b3AtY29sb3I9IiMxMzQ4RkYiLz4mI3hhOzxzdG9wIHN0b3AtY29sb3I9IiMwNjIzOEQiIG9mZnNldD0iMSIvPiYjeGE7PC9saW5lYXJHcmFkaWVudD4mI3hhOzxsaW5lYXJHcmFkaWVudCBncmFkaWVudFVuaXRzPSJ1c2VyU3BhY2VPblVzZSIgeTI9IjExLjg1MTQiIHgyPSIxMy4yNjA3IiB5MT0iOC4wNDQ5NCIgeDE9IjguOTEzNyIgaWQ9InBhaW50M19saW5lYXJfMzg5MF8yMTUxOSI+JiN4YTs8c3RvcCBzdG9wLWNvbG9yPSIjMTM0OEZGIi8+JiN4YTs8c3RvcCBzdG9wLWNvbG9yPSIjMDYyMzhEIiBvZmZzZXQ9IjEiLz4mI3hhOzwvbGluZWFyR3JhZGllbnQ+JiN4YTs8bGluZWFyR3JhZGllbnQgZ3JhZGllbnRVbml0cz0idXNlclNwYWNlT25Vc2UiIHkyPSIxMS44NTE0IiB4Mj0iMTMuMjYwNyIgeTE9IjguMDQ0OTQiIHgxPSI4LjkxMzciIGlkPSJwYWludDRfbGluZWFyXzM4OTBfMjE1MTkiPiYjeGE7PHN0b3Agc3RvcC1jb2xvcj0iIzEzNDhGRiIvPiYjeGE7PHN0b3Agc3RvcC1jb2xvcj0iIzA2MjM4RCIgb2Zmc2V0PSIxIi8+JiN4YTs8L2xpbmVhckdyYWRpZW50PiYjeGE7PGNsaXBQYXRoIGlkPSJjbGlwMF8zODkwXzIxNTE5Ij4mI3hhOzxyZWN0IHRyYW5zZm9ybT0idHJhbnNsYXRlKDMuNTk3NjYgMy4zOTc5NSkiIGZpbGw9IndoaXRlIiBoZWlnaHQ9IjEwIiB3aWR0aD0iMTAiLz4mI3hhOzwvY2xpcFBhdGg+JiN4YTs8L2RlZnM+JiN4YTs8L3N2Zz4=;" vertex="1" parent="YkXKvpvC7lJtgDXOQDdZ-17">
          <mxGeometry x="20.5" y="35.5" width="48" height="48" as="geometry" />
        </mxCell>
        <mxCell id="YkXKvpvC7lJtgDXOQDdZ-21" value="SAP Cloud Identity Services" style="text;html=1;align=left;verticalAlign=middle;resizable=0;points=[];autosize=1;strokeColor=none;fillColor=none;fontSize=16;fontColor=#1A2733;fontFamily=Helvetica;fontStyle=1" vertex="1" parent="1">
          <mxGeometry x="1067" y="942.0899999999999" width="218" height="31" as="geometry" />
        </mxCell>
        <mxCell id="YkXKvpvC7lJtgDXOQDdZ-22" value="&lt;font color=&quot;#475e75&quot; size=&quot;1&quot;&gt;&lt;b style=&quot;&quot;&gt;User&lt;/b&gt;&lt;/font&gt;" style="rounded=1;whiteSpace=wrap;html=1;arcSize=50;strokeColor=#475e75;fillColor=#f5f6f7;strokeWidth=1.5;" vertex="1" parent="1">
          <mxGeometry x="1218" y="1151.0899999999997" width="33" height="16" as="geometry" />
        </mxCell>
        <mxCell id="YkXKvpvC7lJtgDXOQDdZ-23" value="" style="group" vertex="1" connectable="0" parent="1">
          <mxGeometry x="1093" y="1030.4499999999994" width="82" height="85.5" as="geometry" />
        </mxCell>
        <mxCell id="YkXKvpvC7lJtgDXOQDdZ-24" value="" style="shape=image;verticalLabelPosition=bottom;labelBackgroundColor=default;verticalAlign=top;aspect=fixed;imageAspect=0;image=data:image/svg+xml,PHN2ZyB4bWxucz0iaHR0cDovL3d3dy53My5vcmcvMjAwMC9zdmciIGZpbGw9Im5vbmUiIHZpZXdCb3g9IjAgMCAxNiAxNiIgaGVpZ2h0PSIxNiIgd2lkdGg9IjE2Ij4mI3hhOzxjaXJjbGUgc3Ryb2tlLXdpZHRoPSIwLjI4NTcwOCIgc3Ryb2tlPSIjRDVEQUREIiBmaWxsPSJ1cmwoI3BhaW50MF9saW5lYXJfMzg5MF8yMTUxMykiIHI9IjcuODU2OTYiIGN5PSI3Ljk5Nzg2IiBjeD0iNy45OTkzMyIvPiYjeGE7PHBhdGggZmlsbD0idXJsKCNwYWludDFfbGluZWFyXzM4OTBfMjE1MTMpIiBkPSJNNy4xNzQ4NCAzLjQxNDlMMTAuMTkzNiA0LjI4NTYxSDEwLjE5MjhDMTAuNDA2NSA0LjM0MjkgMTAuNTEzMyA0LjQ4NDkzIDEwLjUxMzMgNC43MTI0OVY2LjIzMDQ0QzEwLjAxNjEgNi4zNzgwNSA5LjY1MjU1IDYuNzY4MjQgOS41NTU4MyA3LjQ0NTUzQzkuNTU1ODMgNy40NDU1MyA5LjI2OTcxIDcuNDYxODcgOC42MzQ4NiA3LjgwMTE2QzggOC4xNDA0NCA3LjU2MzcxIDguNjkwNTQgNy41NjM3MSA4LjY5MDU0QzcuMTM3NDggOS4xNzM1MSA3LjAzMzEyIDkuNDk2MjYgNy4xODA2NiAxMC4yMDMxQzcuMzcwMDQgMTAuNjQzNyA3LjUzMjQ4IDEwLjgxOTggNy45MDEzMSAxMS4wMzQxQzcuOTAxMzEgMTEuMDM0MSA3Ljg1MTMxIDExLjI5OTYgNy45MDI2NCAxMS43Mzc3QzcuNzU0NzYgMTEuODI3OSA3LjYyNDQgMTEuOTAxNCA3LjUxMTY3IDExLjk1ODZDNy4zNDMwNiAxMi4wNDQyIDcuMjQ3MzkgMTIuMDkyNiA3LjIyNTA2IDEyLjEwMzlDNy4xNTc3IDEyLjEyNjkgNy4xMDE0OSAxMi4xMzgyIDcuMDU2NDUgMTIuMTM4MkM3LjAxMTQgMTIuMTM4MiA2Ljk1NTIgMTIuMTI2NSA2Ljg4NzgzIDEyLjEwMzlDNi44NjUxMSAxMi4wOTI2IDYuNzY5ODQgMTIuMDQ3IDYuNjAxMjIgMTEuOTY3NUM2LjQzMjYxIDExLjg4NzYgNi4yMjQ1MyAxMS43NjU0IDUuOTc3MzggMTEuNjAwM0M1LjczMDI0IDExLjQzNTMgNS40Njg3NCAxMS4yMzMyIDUuMTkzMjkgMTAuOTk0M0M0LjkxNzg1IDEwLjc1NTQgNC42NjE5MyAxMC40NzY2IDQuNDI1OTUgMTAuMTU3OUM0LjE4OTU3IDkuODM5NTQgMy45OTMwNSA5LjQ4MTI1IDMuODM1NTkgOS4wODI2MUMzLjY3ODE0IDguNjg0MzcgMy41OTk2MSA4LjI0NjE5IDMuNTk5NjEgNy43NjgwNlY0LjcxMjQ5QzMuNTk5NjEgNC40ODQ5MyAzLjcwNjQ0IDQuMzQyNSAzLjkyMDEgNC4yODU2MUw2LjkzODg1IDMuNDE0OUM3LjAwNjIyIDMuMzkyMyA3LjA4NDc1IDMuMzkyMyA3LjE3NDg0IDMuNDE0OVoiLz4mI3hhOzxwYXRoIGZpbGw9InVybCgjcGFpbnQyX2xpbmVhcl8zODkwXzIxNTEzKSIgZD0iTTEwLjU1MjUgNy41MTg4OUMxMC41ODk5IDcuMjgwMTcgMTAuODEzNiA3LjExNjkxIDExLjA1MjQgNy4xNTQyNEMxMS45MDg5IDcuMjg4MTkgMTIuNzUxMiA3LjY5NTM3IDEzLjQ0NDEgOC4zOTIwNEMxMy42MTQ1IDguNTYzMzYgMTMuNjEzNyA4Ljg0MDM3IDEzLjQ0MjQgOS4wMTA3NUMxMy4yNzExIDkuMTgxMTQgMTIuOTk0MSA5LjE4MDM3IDEyLjgyMzcgOS4wMDkwNUMxMi4yNjMxIDguNDQ1MzYgMTEuNTkxMSA4LjEyNDEyIDEwLjkxNzIgOC4wMTg3M0MxMC42Nzg1IDcuOTgxNCAxMC41MTUyIDcuNzU3NjEgMTAuNTUyNSA3LjUxODg5WiIgY2xpcC1ydWxlPSJldmVub2RkIiBmaWxsLXJ1bGU9ImV2ZW5vZGQiLz4mI3hhOzxwYXRoIGZpbGw9InVybCgjcGFpbnQzX2xpbmVhcl8zODkwXzIxNTEzKSIgZD0iTTEwLjkzNjIgMTEuMjU0OUMxMC45MzYyIDExLjAxMzMgMTAuNzQwMyAxMC44MTc0IDEwLjQ5ODcgMTAuODE3NEMxMC4yNTcxIDEwLjgxNzQgMTAuMDYxMiAxMS4wMTMzIDEwLjA2MTIgMTEuMjU0OUMxMC4wNjEyIDExLjU5ODUgMTAuMTUzMiAxMS45NjQ2IDEwLjMzNjYgMTIuMjYwOUMxMC4zNTU1IDEyLjI5MTQgMTAuMzc0NiAxMi4zMjE5IDEwLjM5NzYgMTIuMzQ5M0MxMC41Mzk4IDEyLjUxOTUgMTAuNzk3IDEyLjU1ODEgMTAuOTgyNyAxMi40Mjk4QzExLjE4MDUgMTIuMjkzMiAxMS4yMzA4IDEyLjAyMjkgMTEuMDk2MiAxMS44MjQ0QzEwLjk5MSAxMS42NTgzIDEwLjkzNjIgMTEuNDUwMiAxMC45MzYyIDExLjI1NDlaIi8+JiN4YTs8cGF0aCBmaWxsPSJ1cmwoI3BhaW50NF9saW5lYXJfMzg5MF8yMTUxMykiIGQ9Ik0xMy4yODggMTAuOTg0N0MxMy4zMzQxIDkuODU4NSAxMi40NjY4IDguOTE0MzggMTEuNDU3MyA4LjUzNTI5QzEwLjQxMTcgOC4xNDI2IDkuMTAzNzUgOC4zMDQ0NiA4LjE5ODU2IDkuNDgyMTVDOC4wNTEzMSA5LjY3MzcyIDguMDg3MjQgOS45NDgzOSA4LjI3ODgyIDEwLjA5NTZDOC40NzAzOSAxMC4yNDI5IDguNzQ1MDYgMTAuMjA3IDguODkyMzEgMTAuMDE1NEM5LjUyOTQ2IDkuMTg2NDMgMTAuNDEwMiA5LjA3NjcxIDExLjE0OTcgOS4zNTQ0M0MxMS45MjU0IDkuNjQ1NzMgMTIuNDM5NyAxMC4zMTQgMTIuNDEzOCAxMC45NDlDMTIuNDA5IDExLjA2NyAxMi4zNjkyIDExLjEyNjkgMTIuMzM4NiAxMS4xNTY3QzEyLjMwNDMgMTEuMTkwNCAxMi4yNTk5IDExLjIwNzQgMTIuMjE3NiAxMS4yMDgyQzEyLjE3NjEgMTEuMjA5IDEyLjE0NSAxMS4xOTQ3IDEyLjEyNDIgMTEuMTczOUMxMi4xMDY2IDExLjE1NjEgMTIuMDY1NiAxMS4xMDI0IDEyLjA2NTYgMTAuOTY2OUMxMi4wNjU2IDEwLjU5MjYgMTEuODI4MiAxMC4xOTE2IDExLjQ4MzcgOS45MzMwOEMxMS4xMTI4IDkuNjU0NzEgMTAuNTg4MSA5LjUxMjU3IDkuOTcxMzkgOS42ODI3M0w5Ljk2MjM2IDkuNjg1MjJMOS45NTM0NCA5LjY4ODA5QzkuMzYyOTEgOS44Nzg1OSA4Ljk4NjIzIDEwLjQzMDYgOC45MDE2IDExLjA3NTVDOC44MTYxMyAxMS43MjY5IDkuMDE2MjMgMTIuNDkzMSA5LjU2ODMxIDEzLjIzODFDOS43MTIxNyAxMy40MzIyIDkuOTg2MTcgMTMuNDczIDEwLjE4MDMgMTMuMzI5MUMxMC4zNzQ0IDEzLjE4NTMgMTAuNDE1MiAxMi45MTEzIDEwLjI3MTMgMTIuNzE3MUM5LjgyNzkgMTIuMTE4OCA5LjcxODUyIDExLjU3NTMgOS43NjkxNiAxMS4xODk0QzkuODE5OTUgMTAuODAyNCAxMC4wMjAxIDEwLjU5IDEwLjIxNCAxMC41MjM1QzEwLjU2MDUgMTAuNDMwOCAxMC44MDI4IDEwLjUxNiAxMC45NTg1IDEwLjYzMjlDMTEuMDQxOSAxMC42OTU1IDExLjEwMzkgMTAuNzcgMTEuMTQzNCAxMC44Mzk0QzExLjE4NTQgMTAuOTExNCAxMS4xODg5IDEwLjk0OCAxMS4xOTEzIDExLjAxMjhDMTEuMjAwOSAxMS4zMjIzIDExLjMwNzYgMTEuNTkzNyAxMS41MDQgMTEuNzkxMUMxMS43MDY5IDExLjk5NSAxMS45NzQ3IDEyLjA4ODEgMTIuMjM0NSAxMi4wODNDMTIuNzY3IDEyLjA3MjcgMTMuMjYwNiAxMS42NTY4IDEzLjI4OCAxMC45ODQ3WiIvPiYjeGE7PGRlZnM+JiN4YTs8bGluZWFyR3JhZGllbnQgZ3JhZGllbnRVbml0cz0idXNlclNwYWNlT25Vc2UiIHkyPSIxNC43NDU4IiB4Mj0iMTMuNjg3NCIgeTE9IjIuMjY4OTQiIHgxPSIxLjQ1MDQzIiBpZD0icGFpbnQwX2xpbmVhcl8zODkwXzIxNTEzIj4mI3hhOzxzdG9wIHN0b3AtY29sb3I9IndoaXRlIi8+JiN4YTs8c3RvcCBzdG9wLWNvbG9yPSIjRUFFQ0VFIiBvZmZzZXQ9IjEiLz4mI3hhOzwvbGluZWFyR3JhZGllbnQ+JiN4YTs8bGluZWFyR3JhZGllbnQgZ3JhZGllbnRVbml0cz0idXNlclNwYWNlT25Vc2UiIHkyPSI5LjQxNzg5IiB4Mj0iMTAuNTkxOSIgeTE9IjQuNzA1IiB4MT0iNC42MzYiIGlkPSJwYWludDFfbGluZWFyXzM4OTBfMjE1MTMiPiYjeGE7PHN0b3Agc3RvcC1jb2xvcj0iIzAxOTVGRiIvPiYjeGE7PHN0b3Agc3RvcC1jb2xvcj0iIzExNDdFOSIgb2Zmc2V0PSIwLjk5MTAyOCIvPiYjeGE7PC9saW5lYXJHcmFkaWVudD4mI3hhOzxsaW5lYXJHcmFkaWVudCBncmFkaWVudFVuaXRzPSJ1c2VyU3BhY2VPblVzZSIgeTI9IjExLjg3NzMiIHgyPSIxMy4yNjI3IiB5MT0iOC4wNzA4MiIgeDE9IjguOTE1NjUiIGlkPSJwYWludDJfbGluZWFyXzM4OTBfMjE1MTMiPiYjeGE7PHN0b3Agc3RvcC1jb2xvcj0iIzEzNDhGRiIvPiYjeGE7PHN0b3Agc3RvcC1jb2xvcj0iIzA2MjM4RCIgb2Zmc2V0PSIxIi8+JiN4YTs8L2xpbmVhckdyYWRpZW50PiYjeGE7PGxpbmVhckdyYWRpZW50IGdyYWRpZW50VW5pdHM9InVzZXJTcGFjZU9uVXNlIiB5Mj0iMTEuODc3MyIgeDI9IjEzLjI2MjciIHkxPSI4LjA3MDgyIiB4MT0iOC45MTU2NSIgaWQ9InBhaW50M19saW5lYXJfMzg5MF8yMTUxMyI+JiN4YTs8c3RvcCBzdG9wLWNvbG9yPSIjMTM0OEZGIi8+JiN4YTs8c3RvcCBzdG9wLWNvbG9yPSIjMDYyMzhEIiBvZmZzZXQ9IjEiLz4mI3hhOzwvbGluZWFyR3JhZGllbnQ+JiN4YTs8bGluZWFyR3JhZGllbnQgZ3JhZGllbnRVbml0cz0idXNlclNwYWNlT25Vc2UiIHkyPSIxMS44NzczIiB4Mj0iMTMuMjYyNyIgeTE9IjguMDcwODIiIHgxPSI4LjkxNTY1IiBpZD0icGFpbnQ0X2xpbmVhcl8zODkwXzIxNTEzIj4mI3hhOzxzdG9wIHN0b3AtY29sb3I9IiMxMzQ4RkYiLz4mI3hhOzxzdG9wIHN0b3AtY29sb3I9IiMwNjIzOEQiIG9mZnNldD0iMSIvPiYjeGE7PC9saW5lYXJHcmFkaWVudD4mI3hhOzwvZGVmcz4mI3hhOzwvc3ZnPg==;" vertex="1" parent="YkXKvpvC7lJtgDXOQDdZ-23">
          <mxGeometry x="16.000000000000227" width="48" height="48" as="geometry" />
        </mxCell>
        <mxCell id="YkXKvpvC7lJtgDXOQDdZ-25" value="&lt;p style=&quot;line-height: 110%;&quot;&gt;&lt;font color=&quot;#1d2d3e&quot; size=&quot;1&quot; face=&quot;arial&quot; style=&quot;&quot;&gt;&lt;span style=&quot;font-size: 14px;&quot;&gt;Identity &lt;br&gt;Authentication&lt;br&gt;&lt;/span&gt;&lt;/font&gt;&lt;/p&gt;" style="text;html=1;align=center;verticalAlign=middle;resizable=1;points=[[0,0.5,0,0,0],[0.21,1,0,0,0],[0.5,1,0,0,0],[0.85,1,0,0,0],[1,0.5,0,0,0]];autosize=0;strokeColor=none;fillColor=none;fontSize=12;fontColor=default;fontFamily=Arial;fixedWidth=1;imageWidth=24;whiteSpace=wrap;labelBackgroundColor=none;container=0;" vertex="1" parent="YkXKvpvC7lJtgDXOQDdZ-23">
          <mxGeometry y="54.5" width="82" height="31" as="geometry" />
        </mxCell>
        <mxCell id="YkXKvpvC7lJtgDXOQDdZ-26" value="" style="edgeStyle=orthogonalEdgeStyle;rounded=0;orthogonalLoop=1;jettySize=auto;html=1;endArrow=none;endFill=0;strokeColor=#475e74;endSize=4;startSize=4;strokeWidth=1.5;exitX=1;exitY=0.5;exitDx=0;exitDy=0;entryX=0;entryY=0.5;entryDx=0;entryDy=0;" edge="1" parent="1" source="YkXKvpvC7lJtgDXOQDdZ-12" target="YkXKvpvC7lJtgDXOQDdZ-16">
          <mxGeometry relative="1" as="geometry">
            <mxPoint x="942" y="1124.0899999999997" as="targetPoint" />
            <mxPoint x="798" y="1173.83" as="sourcePoint" />
          </mxGeometry>
        </mxCell>
        <mxCell id="YkXKvpvC7lJtgDXOQDdZ-27" value="" style="edgeStyle=orthogonalEdgeStyle;rounded=0;orthogonalLoop=1;jettySize=auto;html=1;endArrow=none;endFill=0;strokeColor=#475e74;endSize=4;startSize=4;strokeWidth=1.5;exitX=1;exitY=0.5;exitDx=0;exitDy=0;entryX=0;entryY=0.5;entryDx=0;entryDy=0;" edge="1" parent="1" source="YkXKvpvC7lJtgDXOQDdZ-24" target="YkXKvpvC7lJtgDXOQDdZ-12">
          <mxGeometry relative="1" as="geometry">
            <mxPoint x="1363" y="1066.0899999999997" as="targetPoint" />
            <mxPoint x="1295" y="1066.0899999999997" as="sourcePoint" />
          </mxGeometry>
        </mxCell>
        <mxCell id="YkXKvpvC7lJtgDXOQDdZ-28" value="" style="edgeStyle=orthogonalEdgeStyle;rounded=0;orthogonalLoop=1;jettySize=auto;html=1;endArrow=none;endFill=0;strokeColor=#475e74;endSize=4;startSize=4;strokeWidth=1.5;exitX=0.5;exitY=0;exitDx=0;exitDy=0;entryX=0.489;entryY=0.987;entryDx=0;entryDy=0;entryPerimeter=0;" edge="1" parent="1" source="YkXKvpvC7lJtgDXOQDdZ-22" target="YkXKvpvC7lJtgDXOQDdZ-11">
          <mxGeometry relative="1" as="geometry">
            <mxPoint x="1251" y="1030.0899999999997" as="targetPoint" />
            <mxPoint x="1171" y="1029.0899999999997" as="sourcePoint" />
            <Array as="points">
              <mxPoint x="1235" y="1140.0899999999997" />
              <mxPoint x="1265" y="1140.0899999999997" />
            </Array>
          </mxGeometry>
        </mxCell>
        <mxCell id="YkXKvpvC7lJtgDXOQDdZ-29" value="&lt;font color=&quot;#475e75&quot; size=&quot;1&quot;&gt;&lt;b style=&quot;&quot;&gt;Identity Lifecycle&lt;/b&gt;&lt;/font&gt;" style="rounded=1;whiteSpace=wrap;html=1;arcSize=50;strokeColor=#475e75;fillColor=#f5f6f7;strokeWidth=1.5;" vertex="1" parent="1">
          <mxGeometry x="1221.5" y="1115.9499999999998" width="89" height="16" as="geometry" />
        </mxCell>
        <mxCell id="YkXKvpvC7lJtgDXOQDdZ-30" value="" style="edgeStyle=orthogonalEdgeStyle;rounded=0;orthogonalLoop=1;jettySize=auto;html=1;endArrow=blockThin;endFill=1;strokeColor=#475e74;endSize=4;startSize=4;strokeWidth=1.5;exitX=0.56;exitY=-0.02;exitDx=0;exitDy=0;entryX=0;entryY=0.5;entryDx=0;entryDy=0;exitPerimeter=0;targetPerimeterSpacing=0;" edge="1" parent="1" source="YkXKvpvC7lJtgDXOQDdZ-34" target="YkXKvpvC7lJtgDXOQDdZ-61">
          <mxGeometry relative="1" as="geometry">
            <mxPoint x="1677" y="1014" as="targetPoint" />
            <mxPoint x="1558" y="794.0000000000002" as="sourcePoint" />
            <Array as="points">
              <mxPoint x="1394" y="902" />
              <mxPoint x="1638" y="902" />
              <mxPoint x="1638" y="830" />
            </Array>
          </mxGeometry>
        </mxCell>
        <mxCell id="YkXKvpvC7lJtgDXOQDdZ-31" value="" style="edgeStyle=orthogonalEdgeStyle;rounded=0;orthogonalLoop=1;jettySize=auto;html=1;endArrow=blockThin;endFill=1;strokeColor=#475e74;endSize=4;startSize=4;strokeWidth=1.5;entryX=0.75;entryY=0;entryDx=0;entryDy=0;exitX=0.613;exitY=0.999;exitDx=0;exitDy=0;exitPerimeter=0;" edge="1" parent="1" source="YkXKvpvC7lJtgDXOQDdZ-34" target="YkXKvpvC7lJtgDXOQDdZ-16">
          <mxGeometry relative="1" as="geometry">
            <mxPoint x="1666.5" y="1103" as="targetPoint" />
            <mxPoint x="1404" y="850" as="sourcePoint" />
            <Array as="points">
              <mxPoint x="1399" y="1012" />
              <mxPoint x="1399" y="1012" />
            </Array>
          </mxGeometry>
        </mxCell>
        <mxCell id="YkXKvpvC7lJtgDXOQDdZ-32" style="edgeStyle=orthogonalEdgeStyle;rounded=0;orthogonalLoop=1;jettySize=auto;html=1;fontSize=18;strokeColor=#475E75;fontFamily=Helvetica;fontColor=default;targetPerimeterSpacing=15;endSize=4;startSize=4;endArrow=blockThin;endFill=1;strokeWidth=1.5;startArrow=none;startFill=0;entryX=0.515;entryY=0.999;entryDx=0;entryDy=0;exitX=1;exitY=0.25;exitDx=0;exitDy=0;entryPerimeter=0;dashed=1;dashPattern=8 8;" edge="1" parent="1">
          <mxGeometry relative="1" as="geometry">
            <mxPoint x="1234.9950000000001" y="1167.0739999999998" as="targetPoint" />
            <mxPoint x="964" y="1180" as="sourcePoint" />
            <Array as="points">
              <mxPoint x="1235" y="1180.0899999999997" />
            </Array>
          </mxGeometry>
        </mxCell>
        <mxCell id="YkXKvpvC7lJtgDXOQDdZ-33" value="" style="edgeStyle=orthogonalEdgeStyle;rounded=0;orthogonalLoop=1;jettySize=auto;html=1;endArrow=none;endFill=1;strokeColor=#475e74;endSize=4;startSize=4;strokeWidth=1.5;exitX=1;exitY=0.25;exitDx=0;exitDy=0;entryX=0.888;entryY=1.009;entryDx=0;entryDy=0;entryPerimeter=0;startFill=0;" edge="1" parent="1" source="YkXKvpvC7lJtgDXOQDdZ-16" target="YkXKvpvC7lJtgDXOQDdZ-34">
          <mxGeometry relative="1" as="geometry">
            <mxPoint x="1421" y="1053" as="targetPoint" />
            <mxPoint x="1347" y="701" as="sourcePoint" />
            <Array as="points">
              <mxPoint x="1425" y="1043" />
              <mxPoint x="1425" y="1035" />
              <mxPoint x="1425" y="1035" />
            </Array>
          </mxGeometry>
        </mxCell>
        <mxCell id="YkXKvpvC7lJtgDXOQDdZ-34" value="&lt;font color=&quot;#475e75&quot; size=&quot;1&quot;&gt;&lt;b style=&quot;&quot;&gt;Identity Lifecycle&lt;/b&gt;&lt;/font&gt;" style="rounded=1;whiteSpace=wrap;html=1;arcSize=50;strokeColor=#475e75;fillColor=#f5f6f7;strokeWidth=1.5;" vertex="1" parent="1">
          <mxGeometry x="1340.5000000000002" y="930.75" width="95" height="16" as="geometry" />
        </mxCell>
        <mxCell id="YkXKvpvC7lJtgDXOQDdZ-35" value="" style="group" vertex="1" connectable="0" parent="1">
          <mxGeometry x="702" y="1295" width="655" height="95" as="geometry" />
        </mxCell>
        <mxCell id="YkXKvpvC7lJtgDXOQDdZ-36" value="&lt;font face=&quot;arial&quot;&gt;&lt;b&gt;Recommended usage of SAP Cloud Identity Services for SAP Joule&lt;/b&gt;&lt;/font&gt;" style="text;html=1;align=left;verticalAlign=middle;resizable=0;points=[];autosize=1;strokeColor=none;fillColor=none;fontSize=12;fontColor=#1D2D3E;fontFamily=Helvetica;" vertex="1" parent="YkXKvpvC7lJtgDXOQDdZ-35">
          <mxGeometry y="-5.890784982935154" width="410" height="30" as="geometry" />
        </mxCell>
        <UserObject label="&lt;span style=&quot;color: rgb(31, 35, 40); font-family: -apple-system, &amp;quot;system-ui&amp;quot;, &amp;quot;Segoe UI&amp;quot;, &amp;quot;Noto Sans&amp;quot;, Helvetica, Arial, sans-serif, &amp;quot;Apple Color Emoji&amp;quot;, &amp;quot;Segoe UI Emoji&amp;quot;; font-size: 16px; background-color: rgb(255, 255, 255);&quot;&gt;The diagram shows the Identity Lifecycle perspective for SAP Joule. The user gets derived from Workforce Person data and gets replicated into the applications including the SAP Build Work Zone store.&lt;/span&gt;" placeholders="1" name="Variable" id="YkXKvpvC7lJtgDXOQDdZ-37">
          <mxCell style="text;html=1;strokeColor=none;fillColor=none;align=left;verticalAlign=middle;whiteSpace=wrap;overflow=hidden;fontColor=#1D2D3E;" vertex="1" parent="YkXKvpvC7lJtgDXOQDdZ-35">
            <mxGeometry y="32.423208191126285" width="653" height="62.57679180887373" as="geometry" />
          </mxCell>
        </UserObject>
        <mxCell id="YkXKvpvC7lJtgDXOQDdZ-38" value="&lt;b style=&quot;border-color: var(--border-color); color: rgb(0, 112, 242); font-size: 16px;&quot;&gt;SAP IAM Identity lifecycle flows with SAP Joule L2/L3&amp;nbsp;&lt;b style=&quot;border-color: var(--border-color); font-family: arial;&quot;&gt;- Solution Diagram&lt;/b&gt;&lt;br&gt;&lt;/b&gt;" style="text;html=1;align=left;verticalAlign=middle;resizable=0;points=[];autosize=1;strokeColor=none;fillColor=none;fontSize=12;fontColor=#1d2d3e;fontFamily=Helvetica;" vertex="1" parent="1">
          <mxGeometry x="700" y="593.0000000000002" width="571" height="31" as="geometry" />
        </mxCell>
        <mxCell id="YkXKvpvC7lJtgDXOQDdZ-39" value="" style="group" vertex="1" connectable="0" parent="1">
          <mxGeometry x="1677" y="1285" width="323" height="116" as="geometry" />
        </mxCell>
        <mxCell id="YkXKvpvC7lJtgDXOQDdZ-40" value="&lt;font face=&quot;Arial&quot; color=&quot;#1a2733&quot;&gt;&lt;b&gt;&amp;nbsp;&lt;/b&gt;&lt;/font&gt;" style="text;html=1;align=center;verticalAlign=middle;resizable=0;points=[];autosize=1;strokeColor=none;fillColor=none;fontSize=16;fontFamily=Helvetica;fontColor=default;" vertex="1" parent="YkXKvpvC7lJtgDXOQDdZ-39">
          <mxGeometry x="158.00000000000023" y="19" width="30" height="30" as="geometry" />
        </mxCell>
        <mxCell id="YkXKvpvC7lJtgDXOQDdZ-41" value="" style="rounded=0;whiteSpace=wrap;html=1;strokeColor=#eaecee;strokeWidth=1.5;arcSize=16;fillColor=#FFFFFF;perimeterSpacing=0;imageHeight=24;absoluteArcSize=1;points=[];connectable=0;container=0;" vertex="1" parent="YkXKvpvC7lJtgDXOQDdZ-39">
          <mxGeometry width="323" height="116" as="geometry" />
        </mxCell>
        <mxCell id="YkXKvpvC7lJtgDXOQDdZ-42" value="&lt;font size=&quot;1&quot; style=&quot;&quot; face=&quot;arial&quot; color=&quot;#1d2d3e&quot;&gt;&lt;b style=&quot;font-size: 12px;&quot;&gt;Legend&lt;/b&gt;&lt;/font&gt;" style="text;html=1;align=left;verticalAlign=top;resizable=0;points=[];autosize=1;strokeColor=none;fillColor=none;fontSize=12;fontColor=default;fontFamily=Helvetica;" vertex="1" parent="YkXKvpvC7lJtgDXOQDdZ-39">
          <mxGeometry x="20.9982051282052" y="9" width="61" height="26" as="geometry" />
        </mxCell>
        <mxCell id="YkXKvpvC7lJtgDXOQDdZ-43" value="&lt;div style=&quot;font-size: 10px; line-height: 100%;&quot;&gt;&lt;span style=&quot;font-family: arial; font-size: 10px; background-color: initial;&quot;&gt;&lt;font style=&quot;font-size: 10px;&quot;&gt;Identity &lt;br&gt;Lifecycle&lt;/font&gt;&lt;/span&gt;&lt;/div&gt;" style="text;html=1;align=left;verticalAlign=middle;resizable=0;points=[];autosize=1;strokeColor=none;fillColor=none;fontSize=10;fontColor=#1D2D3E;fontFamily=Helvetica;labelPosition=center;verticalLabelPosition=middle;" vertex="1" parent="YkXKvpvC7lJtgDXOQDdZ-39">
          <mxGeometry x="39.86999999999989" y="49.5" width="57" height="34" as="geometry" />
        </mxCell>
        <mxCell id="YkXKvpvC7lJtgDXOQDdZ-44" value="" style="ellipse;whiteSpace=wrap;html=1;aspect=fixed;strokeColor=none;fillColor=#475E75;fontColor=#475E75;" vertex="1" parent="YkXKvpvC7lJtgDXOQDdZ-39">
          <mxGeometry x="21.36999999999989" y="59" width="16" height="16" as="geometry" />
        </mxCell>
        <mxCell id="YkXKvpvC7lJtgDXOQDdZ-45" value="" style="ellipse;whiteSpace=wrap;html=1;aspect=fixed;strokeColor=none;fillColor=#7F00FF;fontColor=#475E75;" vertex="1" parent="YkXKvpvC7lJtgDXOQDdZ-39">
          <mxGeometry x="21.36999999999989" y="37.5" width="16" height="16" as="geometry" />
        </mxCell>
        <mxCell id="YkXKvpvC7lJtgDXOQDdZ-46" value="&lt;div style=&quot;font-size: 10px; line-height: 100%;&quot;&gt;&lt;span style=&quot;font-family: arial; font-size: 10px; background-color: initial;&quot;&gt;&lt;font style=&quot;font-size: 10px;&quot;&gt;Authorization&lt;/font&gt;&lt;/span&gt;&lt;/div&gt;" style="text;html=1;align=left;verticalAlign=middle;resizable=0;points=[];autosize=1;strokeColor=none;fillColor=none;fontSize=10;fontColor=#1D2D3E;fontFamily=Helvetica;labelPosition=center;verticalLabelPosition=middle;" vertex="1" parent="YkXKvpvC7lJtgDXOQDdZ-39">
          <mxGeometry x="39.86999999999989" y="33" width="76" height="23" as="geometry" />
        </mxCell>
        <mxCell id="YkXKvpvC7lJtgDXOQDdZ-47" value="" style="shape=image;verticalLabelPosition=bottom;verticalAlign=top;imageAspect=0;aspect=fixed;image=data:image/svg+xml,PHN2ZyB4bWxucz0iaHR0cDovL3d3dy53My5vcmcvMjAwMC9zdmciIGZpbGw9Im5vbmUiIHZpZXdCb3g9IjAgMCA0OSA0OSIgaGVpZ2h0PSI0OSIgd2lkdGg9IjQ5Ij4mI3hhOzxjaXJjbGUgc3Ryb2tlLXdpZHRoPSIwLjg1NzE0MyIgc3Ryb2tlPSIjRDVEQUREIiBmaWxsPSJ1cmwoI3BhaW50MF9saW5lYXJfMjYyMl8yMDQ3NSkiIHI9IjIzLjU3MTQiIGN5PSIyNC4wMzQ5IiBjeD0iMjQuNSIvPiYjeGE7PHBhdGggZmlsbD0idXJsKCNwYWludDFfcmFkaWFsXzI2MjJfMjA0NzUpIiBkPSJNMjQuMzkzMSAxMi4yMzcxQzIwLjExMDcgMTIuMjM3MSAxNy4wNjgxIDE1LjcyMzEgMTYuNTYxMSAxOS4zNjI1QzE1LjE4MzYgMTkuNDQ0NCAxMy45NjcyIDE5Ljk2MjEgMTMuMDIyNSAyMC44MzE3QzExLjc0NDUgMjIuMDA4MSAxMS4wODQ0IDIzLjcxNTYgMTEuMDg0NCAyNS41MTYzQzExLjA4NDQgMjcuMTg5NyAxMS41OTIgMjguNzcxNSAxMi43MzE2IDI5Ljk0MDlDMTMuNTg2MSAzMC44MTc4IDE0LjcwNzcgMzEuMzcyNCAxNi4wMTcgMzEuNTk4NEMxNi4xMzc2IDMxLjM1MzUgMTYuMjczNSAzMS4xMTY4IDE2LjQyNTIgMzAuODg5MkwxNi40NDEgMzAuODY1NUwxNi40NTQ4IDMwLjg0NjFDMTYuNzA2OSAzMC40OTAxIDE2Ljk5NDggMzAuMTY2IDE3LjMxNjkgMjkuODc2MUMxNy4xODMxIDI5LjQzMTcgMTcuMTE4IDI4Ljk2NDUgMTcuMTE4IDI4LjQ4MzVDMTcuMTE4IDI3Ljg1NDkgMTcuMjM4NiAyNy4yNDEzIDE3LjQ4NDkgMjYuNjU5MkMxNy43MiAyNi4xMDMzIDE4LjA1MTMgMjUuNjAwMSAxOC40ODI0IDI1LjE2OTFDMTguOTE4IDI0LjczMzQgMTkuNDI1IDI0LjM5MTYgMTkuOTkyNiAyNC4xNTE1QzIwLjU3NDcgMjMuOTA1MiAyMS4xODgyIDIzLjc4NDYgMjEuODE2OCAyMy43ODQ2QzIyLjA3NTkgMjMuNzg0NiAyMi4zMzI0IDIzLjgwNTEgMjIuNTg1MyAyMy44NDY0QzIyLjkwNjUgMjMuNjE3OSAyMy4yNTIyIDIzLjQyNTEgMjMuNjIwNCAyMy4yNjkzQzI0LjI4NTEgMjIuOTg4MSAyNC45ODYzIDIyLjg0OTcgMjUuNzA4OSAyMi44NDk3QzI2LjQzMTYgMjIuODQ5NyAyNy4xMzI3IDIyLjk4ODEgMjcuNzk3NSAyMy4yNjkzQzI4LjQ0MzYgMjMuNTQyNyAyOS4wMTc2IDIzLjkzMjYgMjkuNTA0MyAyNC40MzY1QzMwLjAwODIgMjQuOTIzMiAzMC4zOTgxIDI1LjQ5NzIgMzAuNjcxNSAyNi4xNDMzQzMwLjk1MjcgMjYuODA4MSAzMS4wOTExIDI3LjUwOTMgMzEuMDkxMSAyOC4yMzE5QzMxLjA5MTEgMjguOTI1MiAzMC45NjM3IDI5LjU5ODggMzAuNzA1IDMwLjIzOTVDMzEuMTk2OSAzMC42Mjg4IDMxLjYzNDYgMzEuMDg3NyAzMi4wMTUyIDMxLjYxMjdDMzUuMjc5MiAzMS4wNDI2IDM3Ljk5OTkgMjguMzY4IDM3Ljk5OTkgMjQuMzU5MUMzNy45OTk5IDIwLjM3NTEgMzUuMTUyNiAxNy4zMTM1IDMxLjcyNDcgMTYuOTg5N0MzMC4zNTA3IDE0LjE0ODMgMjcuOCAxMi4yMzcxIDI0LjM5MzEgMTIuMjM3MVoiIGNsaXAtcnVsZT0iZXZlbm9kZCIgZmlsbC1ydWxlPSJldmVub2RkIi8+JiN4YTs8cGF0aCBmaWxsPSJ1cmwoI3BhaW50Ml9yYWRpYWxfMjYyMl8yMDQ3NSkiIGQ9Ik0yOC4zMzY4IDMwLjgwNzhDMjkuMzA4MiAzMS4xODk0IDMwLjA5NzQgMzEuODEzOCAzMC43MDQ1IDMyLjY4MTFDMzEuMzExNiAzMy41NDg0IDMxLjYxNTIgMzQuNTI4NSAzMS42MTUyIDM1LjYyMTNWMzcuMTA0NEMzMS42MTUyIDM3LjMxMjUgMzEuNTM3MSAzNy40ODYgMzEuMzgxIDM3LjYyNDdDMzEuMjQyMiAzNy43NjM1IDMxLjA3NzQgMzcuODMyOSAzMC44ODY2IDM3LjgzMjlIMjkuNDAzNkMyOS4xOTU0IDM3LjgzMjkgMjkuMDEzMyAzNy43NjM1IDI4Ljg1NzIgMzcuNjI0N0MyOC43MTg0IDM3LjQ4NiAyOC42NDkgMzcuMzEyNSAyOC42NDkgMzcuMTA0NEMyOC42NDkgMzYuODk2MiAyOC43MTg0IDM2LjcyMjcgMjguODU3MiAzNi41ODRDMjkuMDEzMyAzNi40Mjc5IDI5LjE5NTQgMzYuMzQ5OCAyOS40MDM2IDM2LjM0OThIMzAuMTMyMVYzNS42MjEzQzMwLjEzMjEgMzUuMTE4MiAzMC4wMzY3IDM0LjY0MTIgMjkuODQ1OSAzNC4xOTAyQzI5LjY1NTEgMzMuNzM5MiAyOS4zODYyIDMzLjM0OSAyOS4wMzkzIDMzLjAxOTRDMjguNzA5NyAzMi42NzI1IDI4LjMxOTUgMzIuNDAzNiAyNy44Njg1IDMyLjIxMjhDMjcuNDM0OCAzMi4wMjIgMjYuOTU3OCAzMS45MjY2IDI2LjQzNzUgMzEuOTI2NkgyNC45ODA0QzI0LjQ2IDMxLjkyNjYgMjMuOTc0NCAzMi4wMjIgMjMuNTIzNCAzMi4yMTI4QzIzLjA4OTcgMzIuNDAzNiAyMi42OTk0IDMyLjY3MjUgMjIuMzUyNSAzMy4wMTk0QzIyLjAyMyAzMy4zNDkgMjEuNzYyOCAzMy43MzkyIDIxLjU3MiAzNC4xOTAyQzIxLjM4MTIgMzQuNjQxMiAyMS4yODU4IDM1LjExODIgMjEuMjg1OCAzNS42MjEzVjM2LjM0OThIMjIuMDE0M0MyMi4yMjI0IDM2LjM0OTggMjIuMzk1OSAzNi40Mjc5IDIyLjUzNDcgMzYuNTg0QzIyLjY3MzQgMzYuNzIyNyAyMi43NDI4IDM2Ljg5NjIgMjIuNzQyOCAzNy4xMDQ0QzIyLjc0MjggMzcuMzEyNSAyMi42NzM0IDM3LjQ4NiAyMi41MzQ3IDM3LjYyNDdDMjIuMzk1OSAzNy43NjM1IDIyLjIyMjQgMzcuODMyOSAyMi4wMTQzIDM3LjgzMjlIMjAuNTMxMkMyMC4zNDA0IDM3LjgzMjkgMjAuMTY3IDM3Ljc2MzUgMjAuMDEwOSAzNy42MjQ3QzE5Ljg3MjEgMzcuNDg2IDE5LjgwMjcgMzcuMzEyNSAxOS44MDI3IDM3LjEwNDRMMTkuODAyNyAzNi4wNTAySDE3LjgyMzRDMTcuNjMyOCAzNi4wNTAyIDE3LjQ2MTYgMzUuOTc5NSAxNy4zMTQ2IDM1Ljg0ODhMMTcuMzA3NSAzNS44NDI1QzE3LjE2ODEgMzUuNzAzMSAxNy4wOTk4IDM1LjUyNzEgMTcuMDk5OCAzNS4zMjY1VjM0LjE4MjdDMTcuMDk5OCAzMy43MzkyIDE3LjE2MjEgMzMuMzIxIDE3LjI4ODEgMzIuOTI5MUwxNy4yODkyIDMyLjkyNTlDMTcuNDI3MiAzMi41MjU2IDE3LjYwNzEgMzIuMTU4NiAxNy44MjkzIDMxLjgyNTNMMTcuODMxOCAzMS44MjE1QzE4LjA2NzggMzEuNDg4MyAxOC4zNDU4IDMxLjE5NjQgMTguNjY1MiAzMC45NDYxQzE4LjkyNDIgMzAuNzMyNCAxOS4yMDU5IDMwLjU1NSAxOS41MTAxIDMwLjQxNEMxOS4wMzk4IDI5Ljg4ODUgMTguODA1NSAyOS4yNDE5IDE4LjgwNTUgMjguNDgzNUMxOC44MDU1IDI4LjA3NDUgMTguODgzMiAyNy42ODUxIDE5LjAzOSAyNy4zMTY3QzE5LjE5MzkgMjYuOTUwNyAxOS40MDYgMjYuNjMyIDE5LjY3NTYgMjYuMzYyM0MxOS45NTc5IDI2LjA4MDEgMjAuMjgzIDI1Ljg2MDkgMjAuNjUwMSAyNS43MDU2QzIxLjAxODQgMjUuNTQ5OCAyMS40MDc4IDI1LjQ3MjEgMjEuODE2OCAyNS40NzIxQzIyLjIyNTkgMjUuNDcyMSAyMi42MTUyIDI1LjU0OTggMjIuOTgzNiAyNS43MDU2TDIzLjAwMDggMjUuNzEzQzIzLjAyNzEgMjUuNjg0OSAyMy4wNTM4IDI1LjY1NzMgMjMuMDgxIDI1LjYzQzIzLjQyOCAyNS4yODMxIDIzLjgyNjkgMjUuMDE0MiAyNC4yNzc5IDI0LjgyMzRDMjQuNzI4OSAyNC42MzI2IDI1LjIwNTkgMjQuNTM3MiAyNS43MDg5IDI0LjUzNzJDMjYuMjEyIDI0LjUzNzIgMjYuNjg5IDI0LjYzMjYgMjcuMTQgMjQuODIzNEMyNy41OTA5IDI1LjAxNDIgMjcuOTgxMiAyNS4yODMxIDI4LjMxMDggMjUuNjNDMjguNjU3NyAyNS45NTk2IDI4LjkyNjYgMjYuMzQ5OSAyOS4xMTc0IDI2LjgwMDlDMjkuMzA4MiAyNy4yNTE5IDI5LjQwMzYgMjcuNzI4OSAyOS40MDM2IDI4LjIzMTlDMjkuNDAzNiAyOC43MzQ5IDI5LjMwODIgMjkuMjEyIDI5LjExNzQgMjkuNjYzQzI4LjkyNjYgMzAuMDk2NiAyOC42NjY0IDMwLjQ3ODIgMjguMzM2OCAzMC44MDc4Wk0yMC4wMzY5IDM0LjA2MDFDMTkuOTgyMiAzNC4yMzAxIDE5LjkzNzIgMzQuNDA0MyAxOS45MDE3IDM0LjU4MjdIMTguNTY3MlYzNC4xODI3QzE4LjU2NzIgMzMuODE1NyAxOC42MzY3IDMzLjQ2OTMgMTguNzc1MiAzMy4xNDJDMTguOTE0NiAzMi44MTI0IDE5LjEwMzkgMzIuNTI5IDE5LjM0MjYgMzIuMjkwM0MxOS41OTYyIDMyLjAzNjcgMTkuODgwMyAzMS44NDEyIDIwLjE5NTMgMzEuNzAyNEMyMC41MjE2IDMxLjU2NDUgMjAuODc0MyAzMS40OTQ5IDIxLjI1NDkgMzEuNDk0OUgyMS44NzA4QzIxLjgzMTUgMzEuNTI1NCAyMS43OTI2IDMxLjU1NjYgMjEuNzU0MSAzMS41ODg0QzIxLjM1NTEgMzEuOTAwNiAyMS4wMDgyIDMyLjI2NDggMjAuNzEzNCAzMi42ODExQzIwLjQzNTggMzMuMDk3NCAyMC4yMTAzIDMzLjU1NzEgMjAuMDM2OSAzNC4wNjAxWk0yNS43MDg5IDI2LjAyMDNDMjUuMTAxOCAyNi4wMjAzIDI0LjU4MTUgMjYuMjM3MSAyNC4xNDc4IDI2LjY3MDhDMjMuNzE0MiAyNy4xMDQ0IDIzLjQ5NzMgMjcuNjI0OCAyMy40OTczIDI4LjIzMTlDMjMuNDk3MyAyOC44MzkgMjMuNzE0MiAyOS4zNTk0IDI0LjE0NzggMjkuNzkzQzI0LjU4MTUgMzAuMjI2NyAyNS4xMDE4IDMwLjQ0MzUgMjUuNzA4OSAzMC40NDM1QzI2LjMxNiAzMC40NDM1IDI2LjgzNjQgMzAuMjI2NyAyNy4yNyAyOS43OTNDMjcuNzAzNyAyOS4zNTk0IDI3LjkyMDUgMjguODM5IDI3LjkyMDUgMjguMjMxOUMyNy45MjA1IDI3LjYyNDggMjcuNzAzNyAyNy4xMDQ0IDI3LjI3IDI2LjY3MDhDMjYuODM2NCAyNi4yMzcxIDI2LjMxNiAyNi4wMjAzIDI1LjcwODkgMjYuMDIwM1pNMjIuMDE0MyAyOC4yMzE5QzIyLjAxNDMgMjguODU5NiAyMi4xNDM2IDI5LjQyMTEgMjIuNDAyMyAyOS45MTYzQzIyLjIyMjMgMjkuOTkwNiAyMi4wMjc1IDMwLjAyNzQgMjEuODE2OCAzMC4wMjc0QzIxLjM5MiAzMC4wMjc0IDIxLjAzMTcgMjkuODc3NiAyMC43MjcyIDI5LjU3MzFDMjAuNDIyOCAyOS4yNjg3IDIwLjI3MjkgMjguOTA4MyAyMC4yNzI5IDI4LjQ4MzVDMjAuMjcyOSAyOC4wNTg3IDIwLjQyMjggMjcuNjk4MyAyMC43MjcyIDI3LjM5MzlDMjEuMDMxNyAyNy4wODk0IDIxLjM5MiAyNi45Mzk2IDIxLjgxNjggMjYuOTM5NkMyMS45NjA1IDI2LjkzOTYgMjIuMDk2OSAyNi45NTY3IDIyLjIyNjIgMjYuOTkxMkMyMi4wODQ5IDI3LjM4NTUgMjIuMDE0MyAyNy43OTkxIDIyLjAxNDMgMjguMjMxOVoiIGNsaXAtcnVsZT0iZXZlbm9kZCIgZmlsbC1ydWxlPSJldmVub2RkIi8+JiN4YTs8ZGVmcz4mI3hhOzxsaW5lYXJHcmFkaWVudCBncmFkaWVudFVuaXRzPSJ1c2VyU3BhY2VPblVzZSIgeTI9IjQ0LjI3OTIiIHgyPSI0MS41NjQ1IiB5MT0iNi44NDc3NSIgeDE9IjQuODUyODciIGlkPSJwYWludDBfbGluZWFyXzI2MjJfMjA0NzUiPiYjeGE7PHN0b3Agc3RvcC1jb2xvcj0id2hpdGUiLz4mI3hhOzxzdG9wIHN0b3AtY29sb3I9IiNFQUVDRUUiIG9mZnNldD0iMSIvPiYjeGE7PC9saW5lYXJHcmFkaWVudD4mI3hhOzxyYWRpYWxHcmFkaWVudCBncmFkaWVudFRyYW5zZm9ybT0idHJhbnNsYXRlKDE1LjI1ODMgMTUuOTk1NCkgcm90YXRlKDQzLjg3NzkpIHNjYWxlKDI1Ljg1MjQgNDguODExNykiIGdyYWRpZW50VW5pdHM9InVzZXJTcGFjZU9uVXNlIiByPSIxIiBjeT0iMCIgY3g9IjAiIGlkPSJwYWludDFfcmFkaWFsXzI2MjJfMjA0NzUiPiYjeGE7PHN0b3Agc3RvcC1jb2xvcj0iIzAxOTVGRiIvPiYjeGE7PHN0b3Agc3RvcC1jb2xvcj0iIzExNDdFOSIgb2Zmc2V0PSIxIi8+JiN4YTs8L3JhZGlhbEdyYWRpZW50PiYjeGE7PHJhZGlhbEdyYWRpZW50IGdyYWRpZW50VHJhbnNmb3JtPSJ0cmFuc2xhdGUoMTUuMjUyMiAxNi4wODc2KSByb3RhdGUoNDMuNTYwMikgc2NhbGUoMjUuODcyNyAyMy41NDcxKSIgZ3JhZGllbnRVbml0cz0idXNlclNwYWNlT25Vc2UiIHI9IjEiIGN5PSIwIiBjeD0iMCIgaWQ9InBhaW50Ml9yYWRpYWxfMjYyMl8yMDQ3NSI+JiN4YTs8c3RvcCBzdG9wLWNvbG9yPSIjMTM0OEZGIi8+JiN4YTs8c3RvcCBzdG9wLWNvbG9yPSIjMDYyMzhEIiBvZmZzZXQ9IjEiLz4mI3hhOzwvcmFkaWFsR3JhZGllbnQ+JiN4YTs8L2RlZnM+JiN4YTs8L3N2Zz4=;points=[[0,0,0,0,0],[0,0.25,0,0,0],[0,0.5,0,0,0],[0,0.75,0,0,0],[0.25,0,0,0,0],[0.5,0,0,0,0],[0.75,0,0,0,0],[1,0,0,0,0],[1,0.25,0,0,0],[1,0.5,0,0,0],[1,0.75,0,0,0]];" vertex="1" parent="YkXKvpvC7lJtgDXOQDdZ-39">
          <mxGeometry x="117" y="37.5" width="16" height="16" as="geometry" />
        </mxCell>
        <mxCell id="YkXKvpvC7lJtgDXOQDdZ-48" value="&lt;div style=&quot;font-size: 10px; line-height: 100%;&quot;&gt;&lt;span style=&quot;font-family: arial; font-size: 10px; background-color: initial;&quot;&gt;&lt;font style=&quot;font-size: 10px;&quot;&gt;Service&lt;/font&gt;&lt;/span&gt;&lt;/div&gt;" style="text;html=1;align=left;verticalAlign=middle;resizable=0;points=[];autosize=1;strokeColor=none;fillColor=none;fontSize=10;fontColor=#1D2D3E;fontFamily=Helvetica;labelPosition=center;verticalLabelPosition=middle;" vertex="1" parent="YkXKvpvC7lJtgDXOQDdZ-39">
          <mxGeometry x="142" y="33" width="51" height="23" as="geometry" />
        </mxCell>
        <mxCell id="YkXKvpvC7lJtgDXOQDdZ-49" value="" style="endArrow=none;html=1;strokeColor=#4628ec;bendable=1;rounded=0;endFill=0;endSize=3;strokeWidth=1.5;" edge="1" parent="YkXKvpvC7lJtgDXOQDdZ-39">
          <mxGeometry width="50" height="50" relative="1" as="geometry">
            <mxPoint x="136.12000000000012" y="67.47000000000003" as="sourcePoint" />
            <mxPoint x="115.12000000000012" y="67.47000000000003" as="targetPoint" />
            <Array as="points" />
          </mxGeometry>
        </mxCell>
        <mxCell id="YkXKvpvC7lJtgDXOQDdZ-50" value="&lt;div style=&quot;font-size: 10px; line-height: 100%;&quot;&gt;&lt;span style=&quot;font-family: arial; font-size: 10px; background-color: initial;&quot;&gt;&lt;font style=&quot;font-size: 10px;&quot;&gt;Data Flow&lt;/font&gt;&lt;/span&gt;&lt;/div&gt;" style="text;html=1;align=left;verticalAlign=middle;resizable=0;points=[];autosize=1;strokeColor=none;fillColor=none;fontSize=10;fontColor=#1D2D3E;fontFamily=Helvetica;labelPosition=center;verticalLabelPosition=middle;" vertex="1" parent="YkXKvpvC7lJtgDXOQDdZ-39">
          <mxGeometry x="142.00000000000023" y="54.5" width="63" height="23" as="geometry" />
        </mxCell>
        <mxCell id="YkXKvpvC7lJtgDXOQDdZ-51" value="" style="edgeStyle=orthogonalEdgeStyle;rounded=0;orthogonalLoop=1;jettySize=auto;html=1;endArrow=blockThin;endFill=1;strokeColor=#475e74;endSize=4;startSize=4;strokeWidth=1.5;startArrow=blockThin;startFill=1;" edge="1" parent="YkXKvpvC7lJtgDXOQDdZ-39">
          <mxGeometry relative="1" as="geometry">
            <mxPoint x="209" y="44.42000000000007" as="targetPoint" />
            <mxPoint x="233" y="44.42000000000007" as="sourcePoint" />
          </mxGeometry>
        </mxCell>
        <mxCell id="YkXKvpvC7lJtgDXOQDdZ-52" value="&lt;div style=&quot;font-size: 10px; line-height: 100%;&quot;&gt;&lt;span style=&quot;font-family: arial; font-size: 10px; background-color: initial;&quot;&gt;&lt;font style=&quot;font-size: 10px;&quot;&gt;Mutual Trust&lt;/font&gt;&lt;/span&gt;&lt;/div&gt;" style="text;html=1;align=left;verticalAlign=middle;resizable=0;points=[];autosize=1;strokeColor=none;fillColor=none;fontSize=10;fontColor=#1D2D3E;fontFamily=Helvetica;labelPosition=center;verticalLabelPosition=middle;" vertex="1" parent="YkXKvpvC7lJtgDXOQDdZ-39">
          <mxGeometry x="238.00000000000023" y="31.5" width="73" height="23" as="geometry" />
        </mxCell>
        <mxCell id="YkXKvpvC7lJtgDXOQDdZ-53" value="" style="ellipse;whiteSpace=wrap;html=1;aspect=fixed;strokeColor=none;fillColor=#188918;" vertex="1" parent="YkXKvpvC7lJtgDXOQDdZ-39">
          <mxGeometry x="21.36999999999989" y="82" width="16" height="16" as="geometry" />
        </mxCell>
        <mxCell id="YkXKvpvC7lJtgDXOQDdZ-54" value="&lt;div style=&quot;font-size: 10px; line-height: 100%;&quot;&gt;&lt;span style=&quot;font-family: arial; font-size: 10px; background-color: initial;&quot;&gt;&lt;font style=&quot;font-size: 10px;&quot;&gt;Authentication&lt;/font&gt;&lt;/span&gt;&lt;/div&gt;" style="text;html=1;align=left;verticalAlign=middle;resizable=0;points=[];autosize=1;strokeColor=none;fillColor=none;fontSize=10;fontColor=#1D2D3E;fontFamily=Helvetica;labelPosition=center;verticalLabelPosition=middle;" vertex="1" parent="YkXKvpvC7lJtgDXOQDdZ-39">
          <mxGeometry x="39.86999999999989" y="77.5" width="81" height="23" as="geometry" />
        </mxCell>
        <mxCell id="YkXKvpvC7lJtgDXOQDdZ-55" value="" style="strokeColor=#0070F2;shadow=0;strokeWidth=2;rounded=1;absoluteArcSize=1;arcSize=20;container=0;" vertex="1" parent="1">
          <mxGeometry x="1803" y="647" width="185" height="257" as="geometry" />
        </mxCell>
        <mxCell id="YkXKvpvC7lJtgDXOQDdZ-56" value="*check SAP Help portal for list of supported solutions for manual integration or as content channel" style="strokeColor=#0070F2;shadow=0;strokeWidth=2;rounded=1;absoluteArcSize=1;arcSize=20;whiteSpace=wrap;verticalAlign=bottom;spacing=10;fontSize=10;fontColor=#556B82;align=left;container=0;" vertex="1" parent="1">
          <mxGeometry x="1803" y="917" width="184" height="253" as="geometry" />
        </mxCell>
        <mxCell id="YkXKvpvC7lJtgDXOQDdZ-57" value="NETWORK" style="text;html=1;align=left;verticalAlign=middle;resizable=0;points=[];autosize=1;strokeColor=none;fillColor=none;fontSize=14;fontStyle=1;fontColor=#5B738B;" vertex="1" parent="1">
          <mxGeometry x="1774" y="612" width="100" height="30" as="geometry" />
        </mxCell>
        <mxCell id="YkXKvpvC7lJtgDXOQDdZ-58" value="" style="shape=image;editableCssRules=.*;part=1;verticalLabelPosition=bottom;labelBackgroundColor=none;verticalAlign=top;aspect=fixed;imageAspect=0;image=data:image/svg+xml,PHN2ZyB4bWxucz0iaHR0cDovL3d3dy53My5vcmcvMjAwMC9zdmciIHZpZXdCb3g9Ii0wLjUgLTAuNSAyNi4wODQgMjgiIGhlaWdodD0iMjgiIHdpZHRoPSIyNi4wODQiPiYjeGE7CSAgPHN0eWxlIHR5cGU9InRleHQvY3NzIj4uc3QwIHsgc3RvcC1jb2xvcjogcmdiKDM1LCAxNDksIDI1NSk7IH0gLnN0MSB7IHN0b3AtY29sb3I6IHJnYigwLCA4NywgMjEwKTsgfSA8L3N0eWxlPiYjeGE7CTxkZWZzPiYjeGE7CQk8bGluZWFyR3JhZGllbnQgZ3JhZGllbnRVbml0cz0idXNlclNwYWNlT25Vc2UiIHkyPSIyMy43OTIiIHgyPSIyMy4yNTYiIHkxPSIzLjQ3NCIgeDE9IjEuODY1IiBpZD0iQSI+JiN4YTsJCQk8c3RvcCBjbGFzcz0ic3QwIi8+JiN4YTsJCQk8c3RvcCBjbGFzcz0ic3QxIiBvZmZzZXQ9IjEiLz4mI3hhOwkJPC9saW5lYXJHcmFkaWVudD4mI3hhOwk8L2RlZnM+JiN4YTsJPHBhdGggZmlsbD0idXJsKCNBKSIgZD0iTTI0LjEwNCA4LjEwMmE0Ljk3IDQuOTcgMCAwIDEgMS4wNDIgMS41MzRjLjI5MS41NDkuNDM4IDEuMTUyLjQzOCAxLjgxdjExLjcyNWMwIDEuMjQxLS40MjEgMi4yNjUtMS4yNjIgMy4wNjgtLjgzOC44NDItMS44OCAxLjI2MS0zLjEyMSAxLjI2MUgzLjgyN2E0LjE4IDQuMTggMCAwIDEtMy4wNjgtMS4yNjFDLS4wODEgMjUuNDM2LS41IDI0LjQxMi0uNSAyMy4xNzFWMTEuNDQ0YzAtMS4zODcuNDkxLTIuNTAyIDEuNDc4LTMuMzQyTDkuNjM4LjU5NkE0LjUgNC41IDAgMCAxIDEyLjU5NC0uNSA0LjA5IDQuMDkgMCAwIDEgMTUuNDQ0LjU5NnptLTkuMzcgNy44MzZIMTAuMzV2OC43MTNoNC4zODR6bTcuNzgyLTQuNDk0YzAtLjQ3My0uMTQ3LS44NTktLjQzOC0xLjE1bC04LjY1OC03LjUwNmMtLjYyMS0uNDczLTEuMjYxLS40NzMtMS45MTggMGwtOC42NTUgNy41MDZjLS4yOTMuMjkzLS40MzguNjc3LS40MzggMS4xNTJ2MTEuNzI1YzAgLjQzOC4xMjguODAzLjM4NCAxLjA5NmExLjUzIDEuNTMgMCAwIDAgMS4wNC4zODRoMy42MTd2LTguNzEzYzAtLjgwMy4yNzQtMS40OC44MjEtMi4wMjcuNTg2LS41ODYgMS4yOC0uODc3IDIuMDgzLS44NzdoNC4zODRhMi42NiAyLjY2IDAgMCAxIDIuMDI3Ljg3N2MuNTQ5LjU0Ny44MjIgMS4yMjQuODIyIDIuMDI3djguNzEzaDMuNjE3Yy40MzggMCAuNzg0LS4xMjggMS4wNC0uMzg0LjE0NC0uMTQzLjI1Ny0uMzE0LjMzMy0uNTAzcy4xMTEtLjM5LjEwNi0uNTkzeiIvPiYjeGE7PC9zdmc+;labelPosition=center;align=left;fontStyle=1;spacingLeft=0;fontSize=16;fontColor=#1D2D3E;html=1;" vertex="1" parent="1">
          <mxGeometry x="1818" y="660" width="28" height="30" as="geometry">
            <mxPoint x="15" y="-90" as="offset" />
          </mxGeometry>
        </mxCell>
        <mxCell id="YkXKvpvC7lJtgDXOQDdZ-59" value="Cloud Connector" style="shape=image;editableCssRules=.*;verticalLabelPosition=middle;labelBackgroundColor=none;verticalAlign=middle;aspect=fixed;imageAspect=0;image=data:image/svg+xml,PHN2ZyB4bWxucz0iaHR0cDovL3d3dy53My5vcmcvMjAwMC9zdmciIHZpZXdCb3g9Ii0wLjUgLTAuNSAyOCAyNy45NDYiIGhlaWdodD0iMjcuOTQ2IiB3aWR0aD0iMjgiPiYjeGE7CSAgPHN0eWxlIHR5cGU9InRleHQvY3NzIj4uc3QwIHsgc3RvcC1jb2xvcjogcmdiKDM1LCAxNDksIDI1NSk7IH0gLnN0MSB7IHN0b3AtY29sb3I6IHJnYigwLCA4NywgMjEwKTsgfSA8L3N0eWxlPiYjeGE7CTxkZWZzPiYjeGE7CQk8bGluZWFyR3JhZGllbnQgZ3JhZGllbnRVbml0cz0idXNlclNwYWNlT25Vc2UiIHkyPSIyNS4zMDEiIHgyPSIyMy40MTIiIHkxPSIzLjQ2NiIgeDE9IjIuMDM5IiBpZD0iQSI+JiN4YTsJCQk8c3RvcCBjbGFzcz0ic3QwIi8+JiN4YTsJCQk8c3RvcCBjbGFzcz0ic3QxIiBvZmZzZXQ9IjEiLz4mI3hhOwkJPC9saW5lYXJHcmFkaWVudD4mI3hhOwk8L2RlZnM+JiN4YTsJPHBhdGggZmlsbD0idXJsKCNBKSIgZD0iTTI3LjA2MiAyNS4wOTRjLjI5Mi4yOTIuNDM4LjYwMi40MzguOTI5YTEuMzYgMS4zNiAwIDAgMS0uNDM3Ljk4NSAxLjM2IDEuMzYgMCAwIDEtLjk4NS40MzhjLS4xODUtLjAwMi0uMzY4LS4wNDItLjUzNy0uMTE3YTEuMzYgMS4zNiAwIDAgMS0uNDQ3LS4zMmwtNS4xNDItNS4xNDJjLTEuMTI5LjkxMi0yLjQwNCAxLjMzLTMuODI3IDEuMjU4cy0yLjY2LS42MzktMy43MTktMS42OTZMNS42NzkgMTQuNzZjLS40OS0uNTE3LS44OTUtMS4xMDctMS4yMDItMS43NWE1LjU5IDUuNTkgMCAwIDEtLjQ5Mi0xLjk2OWMtLjAwMS0uNjg0LjA5LTEuMzY1LjI3My0yLjAyNS4yMTktLjY1Ni41NjUtMS4yNTYgMS4wNC0xLjgwM2wtNS4zNi01LjMwOUExLjM2IDEuMzYgMCAwIDEtLjUuOTIxYzAtLjM2Mi4xNDUtLjY5MS40MzgtLjk4M0ExLjM2IDEuMzYgMCAwIDEgLjkyMy0uNWMuMzY0IDAgLjY5MS4xNDUuOTg0LjQzN2w1LjMwNCA1LjMwNEM4LjI4IDQuMzUgOS42NDkgMy45IDExLjAzOSAzLjk4M2MxLjQyMS4wNzQgMi42Ni42MzkgMy43MTkgMS42OTdsNi43MjcgNi42NzFjLjUwOS41NDYuOTEgMS4xNDggMS4yMDIgMS44MDQuNTgxIDEuMjM0LjY2IDIuNjQ2LjIxOSAzLjkzNy0uMjE4LjY1NS0uNTUyIDEuMjY2LS45ODUgMS44MDR6TTcuNjQ4IDguNzQyYy0uMjY0LjI1NS0uNDczLjU2MS0uNjEzLjlzLS4yMTEuNzAyLS4yMDYgMS4wNjljMCAuNzMuMjczIDEuMzY5LjgxOSAxLjkxNUwxMCAxNS4wMzEgMTUuMDMxIDEwbC0yLjM1Mi0yLjQwNmMtLjI1NS0uMjY0LS41NjEtLjQ3My0uODk5LS42MTRzLS43MDMtLjIxMS0xLjA2OS0uMjA2Yy0uNzI4IDAtMS4zODQuMjc1LTEuOTY5LjgyMXptNi43MjcgMTAuNjFjLjI0Ni4yNi41NDMuNDY3Ljg3Mi42MDhzLjY4NC4yMTMgMS4wNDIuMjEyYy43NjUgMCAxLjQyMS0uMjc1IDEuOTY5LS44MjNsMS4xNDgtMS4wOTJjLjU0OC0uNTg0LjgyMS0xLjI0MS44MjEtMS45NjkgMC0uNzY3LS4yNzMtMS40MjMtLjgyMS0xLjk2OUwxNyAxMS45NjkgMTEuOTY5IDE3eiIvPiYjeGE7PC9zdmc+;labelPosition=right;align=left;fontSize=10;" vertex="1" parent="1">
          <mxGeometry x="1812.9993548387097" y="864.0026315789474" width="28" height="28" as="geometry" />
        </mxCell>
        <mxCell id="YkXKvpvC7lJtgDXOQDdZ-60" value="&lt;span style=&quot;background-color: light-dark(#ffffff, var(--ge-dark-color, #121212));&quot;&gt;&lt;span style=&quot;text-wrap-mode: nowrap; font-weight: 700; font-size: 16px; color: rgb(29, 45, 62);&quot;&gt;SAP Private Cloud&lt;/span&gt;&lt;br&gt;&lt;span style=&quot;text-wrap-mode: nowrap; font-weight: 700; font-size: 10px; color: rgb(29, 45, 62);&quot;&gt;SAP S/4HANA cloud private edition&lt;/span&gt;&lt;/span&gt;" style="text;whiteSpace=wrap;html=1;" vertex="1" parent="1">
          <mxGeometry x="1813" y="691" width="150" height="95" as="geometry" />
        </mxCell>
        <mxCell id="YkXKvpvC7lJtgDXOQDdZ-61" value="&lt;font color=&quot;#475e75&quot; size=&quot;1&quot;&gt;&lt;b style=&quot;&quot;&gt;Identity Lifecycle&lt;/b&gt;&lt;/font&gt;" style="rounded=1;whiteSpace=wrap;html=1;arcSize=50;strokeColor=#475e75;fillColor=#f5f6f7;strokeWidth=1.5;" vertex="1" parent="1">
          <mxGeometry x="1782.92" y="822.16" width="95" height="16" as="geometry" />
        </mxCell>
        <mxCell id="YkXKvpvC7lJtgDXOQDdZ-62" value="" style="shape=image;editableCssRules=.*;part=0;verticalLabelPosition=bottom;labelBackgroundColor=default;verticalAlign=top;imageAspect=0;image=data:image/svg+xml,PHN2ZyB4bWxucz0iaHR0cDovL3d3dy53My5vcmcvMjAwMC9zdmciIHZpZXdCb3g9Ii0wLjUgLTAuNSAyOCAxOC40MTIiIGhlaWdodD0iMTguNDEyIiB3aWR0aD0iMjgiPiYjeGE7CSAgPHN0eWxlIHR5cGU9InRleHQvY3NzIj4uc3QwIHsgc3RvcC1jb2xvcjogcmdiKDM1LCAxNDksIDI1NSk7IH0gLnN0MSB7IHN0b3AtY29sb3I6IHJnYigwLCA4NywgMjEwKTsgfSA8L3N0eWxlPiYjeGE7CTxkZWZzPiYjeGE7CQk8bGluZWFyR3JhZGllbnQgZ3JhZGllbnRVbml0cz0idXNlclNwYWNlT25Vc2UiIHkyPSIyMi4wMDgiIHgyPSIxNC44NjkiIHkxPSIyLjExMyIgeDE9IjIuMDM5IiBpZD0iQSI+JiN4YTsJCQk8c3RvcCBjbGFzcz0ic3QwIi8+JiN4YTsJCQk8c3RvcCBjbGFzcz0ic3QxIiBvZmZzZXQ9IjEiLz4mI3hhOwkJPC9saW5lYXJHcmFkaWVudD4mI3hhOwk8L2RlZnM+JiN4YTsJPHBhdGggZmlsbD0idXJsKCNBKSIgZD0iTTUuOTAzIDYuMDQ3QzYuNDM0IDIuMzQ1IDkuNjE5LS41IDEzLjQ2Ny0uNWMyLjgwMSAwIDUuMjQ3IDEuNTA2IDYuNTc3IDMuNzQ5aC4xMjRjNC4wNDkgMCA3LjMzMSAzLjI4MiA3LjMzMSA3LjMzMXMtMy4yODIgNy4zMzEtNy4zMzEgNy4zMzFoLTQuMDU0Yy0uMDg3IDAtLjE3My0uMDAyLS4yNTktLjAwNS0uMDc4LjAwMy0uMTU1LjAwNS0uMjMzLjAwNUg1LjQzMmMtMy4yNzYgMC01LjkzMi0yLjY1Ni01LjkzMi01LjkzMnMyLjY1Ni01LjkzMiA1LjkzMi01LjkzMnpNMTMuNDY3IDIuM2MtMi42NzQgMC00Ljg0MiAyLjE2OC00Ljg0MiA0Ljg0MmE0Ljk0IDQuOTQgMCAwIDAgLjAwNi4yMzggMS40IDEuNCAwIDAgMS0xLjM5OCAxLjQ2N2gtMS44Yy0xLjczIDAtMy4xMzIgMS40MDItMy4xMzIgMy4xMzJzMS40MDIgMy4xMzIgMy4xMzIgMy4xMzJoMTAuMTlhMy4xNCAzLjE0IDAgMCAwIC4xNi0uMDA0IDEuMzkgMS4zOSAwIDAgMSAuMTMxIDBjLjA2Ny4wMDMuMTM0LjAwNC4yMDIuMDA0aDQuMDU0YTQuNTMgNC41MyAwIDEgMCAwLTkuMDYyaC0uOTc3YTEuNCAxLjQgMCAwIDEtMS4yODMtLjg0QzE3LjE2MSAzLjQ5NCAxNS40NTIgMi4zIDEzLjQ2NyAyLjN6IiBmaWxsLXJ1bGU9ImV2ZW5vZGQiLz4mI3hhOzwvc3ZnPg==;labelPosition=center;align=left;fontSize=16;fontStyle=1;spacingLeft=0;" vertex="1" parent="1">
          <mxGeometry x="1818" y="929.44" width="34" height="22" as="geometry">
            <mxPoint x="15" y="-81" as="offset" />
          </mxGeometry>
        </mxCell>
        <mxCell id="YkXKvpvC7lJtgDXOQDdZ-63" value="&lt;span style=&quot;color: rgb(0, 0, 0); font-family: Helvetica; font-size: 16px; font-style: normal; font-variant-ligatures: normal; font-variant-caps: normal; font-weight: 700; letter-spacing: normal; orphans: 2; text-align: left; text-indent: 0px; text-transform: none; widows: 2; word-spacing: 0px; -webkit-text-stroke-width: 0px; white-space: nowrap; background-color: rgb(255, 255, 255); text-decoration-thickness: initial; text-decoration-style: initial; text-decoration-color: initial; display: inline !important; float: none;&quot;&gt;SAP Cloud&lt;/span&gt;&lt;br style=&quot;forced-color-adjust: none; padding: 0px; margin: 0px; color: rgb(0, 0, 0); font-family: Helvetica; font-size: 16px; font-style: normal; font-variant-ligatures: normal; font-variant-caps: normal; font-weight: 700; letter-spacing: normal; orphans: 2; text-align: left; text-indent: 0px; text-transform: none; widows: 2; word-spacing: 0px; -webkit-text-stroke-width: 0px; white-space: nowrap; text-decoration-thickness: initial; text-decoration-style: initial; text-decoration-color: initial;&quot;&gt;&lt;span style=&quot;color: rgb(0, 0, 0); font-family: Helvetica; font-size: 16px; font-style: normal; font-variant-ligatures: normal; font-variant-caps: normal; font-weight: 700; letter-spacing: normal; orphans: 2; text-align: left; text-indent: 0px; text-transform: none; widows: 2; word-spacing: 0px; -webkit-text-stroke-width: 0px; white-space: nowrap; background-color: rgb(255, 255, 255); text-decoration-thickness: initial; text-decoration-style: initial; text-decoration-color: initial; display: inline !important; float: none;&quot;&gt;Solutions&lt;/span&gt;" style="text;whiteSpace=wrap;html=1;" vertex="1" parent="1">
          <mxGeometry x="1816.42" y="948.08" width="120" height="60" as="geometry" />
        </mxCell>
        <mxCell id="YkXKvpvC7lJtgDXOQDdZ-64" value="&lt;font color=&quot;#475e75&quot; size=&quot;1&quot;&gt;&lt;b style=&quot;&quot;&gt;Identity Lifecycle&lt;/b&gt;&lt;/font&gt;" style="rounded=1;whiteSpace=wrap;html=1;arcSize=50;strokeColor=#475e75;fillColor=#f5f6f7;strokeWidth=1.5;" vertex="1" parent="1">
          <mxGeometry x="1782" y="1034.0900000000001" width="95" height="16" as="geometry" />
        </mxCell>
        <mxCell id="YkXKvpvC7lJtgDXOQDdZ-65" value="" style="edgeStyle=orthogonalEdgeStyle;rounded=0;orthogonalLoop=1;jettySize=auto;html=1;endArrow=blockThin;endFill=1;strokeColor=#475e74;endSize=4;startSize=4;strokeWidth=1.5;exitX=0.75;exitY=0;exitDx=0;exitDy=0;entryX=0;entryY=0.5;entryDx=0;entryDy=0;" edge="1" parent="1" source="YkXKvpvC7lJtgDXOQDdZ-34" target="YkXKvpvC7lJtgDXOQDdZ-64">
          <mxGeometry relative="1" as="geometry">
            <mxPoint x="2116" y="795" as="targetPoint" />
            <mxPoint x="1720" y="928" as="sourcePoint" />
          </mxGeometry>
        </mxCell>
        <mxCell id="YkXKvpvC7lJtgDXOQDdZ-66" value="" style="rounded=1;whiteSpace=wrap;html=1;strokeColor=#0070F2;fillColor=#ffffff;arcSize=24;absoluteArcSize=1;imageWidth=64;imageHeight=64;strokeWidth=1.5;part=1;verticalAlign=top;align=left;fontSize=16;fontStyle=1;spacingLeft=10;spacingTop=10;" vertex="1" parent="1">
          <mxGeometry x="1178" y="686" width="256" height="161" as="geometry" />
        </mxCell>
        <mxCell id="YkXKvpvC7lJtgDXOQDdZ-67" value="" style="edgeStyle=orthogonalEdgeStyle;rounded=0;orthogonalLoop=1;jettySize=auto;html=1;endArrow=blockThin;endFill=1;strokeColor=#475e74;endSize=4;startSize=4;strokeWidth=1.5;entryX=1;entryY=0.5;entryDx=0;entryDy=0;exitX=0.356;exitY=-0.02;exitDx=0;exitDy=0;exitPerimeter=0;" edge="1" parent="1" source="YkXKvpvC7lJtgDXOQDdZ-34" target="YkXKvpvC7lJtgDXOQDdZ-68">
          <mxGeometry relative="1" as="geometry">
            <mxPoint x="1380" y="777.29" as="targetPoint" />
            <mxPoint x="1375" y="929" as="sourcePoint" />
            <Array as="points">
              <mxPoint x="1374" y="892" />
              <mxPoint x="1463" y="892" />
              <mxPoint x="1463" y="796" />
            </Array>
          </mxGeometry>
        </mxCell>
        <mxCell id="YkXKvpvC7lJtgDXOQDdZ-68" value="&lt;font color=&quot;#475e75&quot; size=&quot;1&quot;&gt;&lt;b style=&quot;&quot;&gt;Identity Replica&lt;/b&gt;&lt;/font&gt;" style="rounded=1;whiteSpace=wrap;html=1;arcSize=50;strokeColor=#475e75;fillColor=#f5f6f7;strokeWidth=1.5;" vertex="1" parent="1">
          <mxGeometry x="1359.5" y="788" width="95" height="16" as="geometry" />
        </mxCell>
        <mxCell id="YkXKvpvC7lJtgDXOQDdZ-69" value="" style="endArrow=none;html=1;strokeColor=#5B738B;bendable=1;rounded=0;endFill=0;endSize=4;strokeWidth=3;startSize=4;startArrow=none;startFill=0;jumpStyle=gap;" edge="1" parent="1">
          <mxGeometry width="50" height="50" relative="1" as="geometry">
            <mxPoint x="1763" y="634.32" as="sourcePoint" />
            <mxPoint x="1763" y="1274.32" as="targetPoint" />
            <Array as="points" />
          </mxGeometry>
        </mxCell>
        <mxCell id="YkXKvpvC7lJtgDXOQDdZ-70" value="Role Mapping&#xa;Service" style="shape=image;editableCssRules=.*;verticalLabelPosition=bottom;labelBackgroundColor=default;verticalAlign=top;aspect=fixed;imageAspect=0;image=data:image/svg+xml,PHN2ZyB4bWxucz0iaHR0cDovL3d3dy53My5vcmcvMjAwMC9zdmciIHZpZXdCb3g9Ii0wLjUgLTAuNSAyNS4yIDI4IiBoZWlnaHQ9IjI4IiB3aWR0aD0iMjUuMiI+JiN4YTsJICA8c3R5bGUgdHlwZT0idGV4dC9jc3MiPiYjeGE7CQkuc3Qwe3N0b3AtY29sb3I6IzAwY2VhYzt9JiN4YTsJCS5zdDF7c3RvcC1jb2xvcjojMDc4MzhmO30mI3hhOwkgIDwvc3R5bGU+JiN4YTsJPGRlZnM+JiN4YTsJCTxsaW5lYXJHcmFkaWVudCBncmFkaWVudFVuaXRzPSJ1c2VyU3BhY2VPblVzZSIgeTI9IjIzLjA1NyIgeDI9IjIzLjEyNiIgeTE9IjMuNDc0IiB4MT0iMS43ODUiIGlkPSJBIj4mI3hhOwkJCTxzdG9wIGNsYXNzPSJzdDAiLz4mI3hhOwkJCTxzdG9wIGNsYXNzPSJzdDEiIG9mZnNldD0iMSIvPiYjeGE7CQk8L2xpbmVhckdyYWRpZW50PiYjeGE7CTwvZGVmcz4mI3hhOwk8cGF0aCBmaWxsPSJ1cmwoI0EpIiBkPSJNMTEuNzU3LS40ODNDMTEuNDQ1LS40MDEuMTg0IDQuNzExLjAyIDQuODM3YTEuNzkgMS43OSAwIDAgMC0uMzU2LjQ3MWwtLjE2NC4zMjN2Ny44ODJWMjEuNGwuMTM3LjI2OGMuMDc3LjE0OC4yMjQuMzQ1LjMzOS40MzguMTMxLjExNSAyLjE3MiAxLjA2MiA1Ljk1OSAyLjc2NCA2LjE4MyAyLjc4MSA2LjA3NCAyLjczNyA2LjU3NyAyLjU2Mi4zOTktLjEzNyAxMS4zNy01LjA4NSAxMS41OTUtNS4yMjcuMjMtLjE0OC40Ni0uNDYuNTM2LS43MjguMDgyLS4yNzQuMDcxLTE1LjY2NS0uMDA2LTE1Ljk1LS4wODItLjI4NS0uMzM0LS42MzUtLjU1OC0uNzY2LS4wOTMtLjA2LTIuNzM2LTEuMjY0LTUuODY2LTIuNjcxLTUuMTYtMi4zMjYtNS43MjQtMi41NjctNi4wMTktMi41ODQtLjE4MS0uMDExLS4zNzgtLjAwNS0uNDM4LjAxMXptNC4yMjQgNC42NTNsMy44MDggMS43NzNjLS4wNjYuMDY2LTcuNTg0IDMuNDQ4LTcuNjc3IDMuNDU0YTM0OS43NSAzNDkuNzUgMCAwIDEtNy43MjYtMy40NTRjLS4wMzMtLjAyNyA3LjU3My0zLjQ5MiA3LjY5My0zLjUwMy4wMjctLjAwNSAxLjc4NC43NzIgMy45MDEgMS43M3ptLTkuNDIzIDUuODQ2bDQuMTMxIDEuODYxdjYuMDA1bC0uMDM4IDYuMDFjLS4wMTYgMC0xLjkwNC0uODQzLTQuMTg2LTEuODY3bC00LjE0OC0xLjg3MnYtNi4wMTVsLjA1NS01Ljk5OWMuMDI3LjAwNSAxLjkxLjg1NCA0LjE4NiAxLjg3N3ptMTUuMzQ5IDQuMTIydjYuMDFsLTQuMTE1IDEuODU1LTQuMjEzIDEuODc4Yy0uMDkzLjAyMi0uMDk4LS4yNzQtLjA4OC01Ljk4OGwuMDE2LTYuMDEgNC4xNTgtMS44NzcgNC4yMDMtMS44NzdjLjAyMiAwIC4wMzggMi43MDQuMDM4IDYuMDF6Ii8+JiN4YTs8L3N2Zz4=;" vertex="1" parent="1">
          <mxGeometry x="1298.25" y="775" width="25" height="28" as="geometry" />
        </mxCell>
        <mxCell id="YkXKvpvC7lJtgDXOQDdZ-71" value="SAP Build Work Zone&lt;div&gt;&lt;br/&gt;&lt;/div&gt;" style="shape=mxgraph.sap.icon;labelPosition=right;verticalLabelPosition=middle;align=left;verticalAlign=middle;strokeWidth=1;strokeColor=#D5DADD;fillColor=#EDEFF0;gradientColor=#FCFCFC;gradientDirection=west;aspect=fixed;SAPIcon=SAP_Build_Work_Zone_-_Standard_Edition;fontSize=16;fontStyle=1;html=1;spacingLeft=10;spacing=0;" vertex="1" parent="1">
          <mxGeometry x="1193" y="702" width="48" height="48" as="geometry" />
        </mxCell>
        <mxCell id="YkXKvpvC7lJtgDXOQDdZ-72" value="" style="edgeStyle=orthogonalEdgeStyle;rounded=0;orthogonalLoop=1;jettySize=auto;html=1;endArrow=blockThin;endFill=1;strokeColor=#475e74;endSize=4;startSize=4;strokeWidth=1.5;entryX=1;entryY=0.75;entryDx=0;entryDy=0;exitX=0;exitY=0.5;exitDx=0;exitDy=0;" edge="1" parent="1" source="YkXKvpvC7lJtgDXOQDdZ-68" target="YkXKvpvC7lJtgDXOQDdZ-70">
          <mxGeometry relative="1" as="geometry">
            <mxPoint x="1539" y="800" as="targetPoint" />
            <mxPoint x="1458" y="934" as="sourcePoint" />
          </mxGeometry>
        </mxCell>
        <mxCell id="YkXKvpvC7lJtgDXOQDdZ-73" value="" style="group" vertex="1" connectable="0" parent="1">
          <mxGeometry x="766" y="1013" width="214" height="63" as="geometry" />
        </mxCell>
        <mxCell id="YkXKvpvC7lJtgDXOQDdZ-74" value="" style="strokeColor=#0070F2;shadow=0;strokeWidth=2;rounded=1;absoluteArcSize=1;arcSize=20;container=0;" vertex="1" parent="YkXKvpvC7lJtgDXOQDdZ-73">
          <mxGeometry width="214" height="63" as="geometry" />
        </mxCell>
        <mxCell id="YkXKvpvC7lJtgDXOQDdZ-75" value="SAP SuccessFactors" style="text;html=1;align=left;verticalAlign=middle;resizable=0;points=[];autosize=1;strokeColor=none;fillColor=none;fontSize=16;fontColor=#1A2733;fontFamily=Helvetica;fontStyle=1" vertex="1" parent="YkXKvpvC7lJtgDXOQDdZ-73">
          <mxGeometry x="8" y="7.560000000000002" width="168" height="31" as="geometry" />
        </mxCell>
        <mxCell id="YkXKvpvC7lJtgDXOQDdZ-76" value="" style="group" vertex="1" connectable="0" parent="1">
          <mxGeometry x="767" y="938" width="214" height="63" as="geometry" />
        </mxCell>
        <mxCell id="YkXKvpvC7lJtgDXOQDdZ-77" value="" style="strokeColor=#0070F2;shadow=0;strokeWidth=2;rounded=1;absoluteArcSize=1;arcSize=20;container=0;" vertex="1" parent="YkXKvpvC7lJtgDXOQDdZ-76">
          <mxGeometry width="214" height="63" as="geometry" />
        </mxCell>
        <mxCell id="YkXKvpvC7lJtgDXOQDdZ-78" value="SAP Fieldglass" style="text;html=1;align=left;verticalAlign=middle;resizable=0;points=[];autosize=1;strokeColor=none;fillColor=none;fontSize=16;fontColor=#1A2733;fontFamily=Helvetica;fontStyle=1" vertex="1" parent="YkXKvpvC7lJtgDXOQDdZ-76">
          <mxGeometry x="11" y="10.699999999999989" width="126" height="31" as="geometry" />
        </mxCell>
        <mxCell id="YkXKvpvC7lJtgDXOQDdZ-79" style="edgeStyle=orthogonalEdgeStyle;rounded=0;orthogonalLoop=1;jettySize=auto;html=1;fontSize=18;strokeColor=#475E75;fontFamily=Helvetica;fontColor=default;targetPerimeterSpacing=15;endSize=4;startSize=4;endArrow=blockThin;endFill=1;strokeWidth=1.5;startArrow=none;startFill=0;entryX=0;entryY=0.25;entryDx=0;entryDy=0;exitX=0;exitY=0.5;exitDx=0;exitDy=0;dashed=1;dashPattern=8 8;" edge="1" parent="1" source="YkXKvpvC7lJtgDXOQDdZ-83" target="YkXKvpvC7lJtgDXOQDdZ-7">
          <mxGeometry relative="1" as="geometry">
            <mxPoint x="1395.9950000000001" y="1176" as="targetPoint" />
            <mxPoint x="1125" y="1188.9260000000002" as="sourcePoint" />
            <Array as="points">
              <mxPoint x="710" y="1058" />
              <mxPoint x="710" y="1180" />
            </Array>
          </mxGeometry>
        </mxCell>
        <mxCell id="YkXKvpvC7lJtgDXOQDdZ-80" style="edgeStyle=orthogonalEdgeStyle;rounded=0;orthogonalLoop=1;jettySize=auto;html=1;fontSize=18;strokeColor=#475E75;fontFamily=Helvetica;fontColor=default;targetPerimeterSpacing=15;endSize=4;startSize=4;endArrow=blockThin;endFill=1;strokeWidth=1.5;startArrow=none;startFill=0;entryX=0;entryY=0.25;entryDx=0;entryDy=0;exitX=0;exitY=0.5;exitDx=0;exitDy=0;dashed=1;dashPattern=8 8;" edge="1" parent="1" source="YkXKvpvC7lJtgDXOQDdZ-85" target="YkXKvpvC7lJtgDXOQDdZ-7">
          <mxGeometry relative="1" as="geometry">
            <mxPoint x="1077" y="1299" as="targetPoint" />
            <mxPoint x="929" y="1164" as="sourcePoint" />
            <Array as="points">
              <mxPoint x="710" y="985" />
              <mxPoint x="710" y="1180" />
            </Array>
          </mxGeometry>
        </mxCell>
        <mxCell id="YkXKvpvC7lJtgDXOQDdZ-81" style="edgeStyle=orthogonalEdgeStyle;rounded=0;orthogonalLoop=1;jettySize=auto;html=1;fontSize=18;strokeColor=#475E75;fontFamily=Helvetica;fontColor=default;targetPerimeterSpacing=15;endSize=4;startSize=4;endArrow=blockThin;endFill=1;strokeWidth=1.5;startArrow=none;startFill=0;entryX=0;entryY=0.75;entryDx=0;entryDy=0;exitX=1;exitY=0.5;exitDx=0;exitDy=0;" edge="1" parent="1" source="YkXKvpvC7lJtgDXOQDdZ-84" target="YkXKvpvC7lJtgDXOQDdZ-22">
          <mxGeometry relative="1" as="geometry">
            <mxPoint x="1299.9950000000001" y="1174" as="targetPoint" />
            <mxPoint x="1029" y="1186.9260000000002" as="sourcePoint" />
            <Array as="points">
              <mxPoint x="1016" y="1058" />
              <mxPoint x="1016" y="1163" />
            </Array>
          </mxGeometry>
        </mxCell>
        <mxCell id="YkXKvpvC7lJtgDXOQDdZ-82" style="edgeStyle=orthogonalEdgeStyle;rounded=0;orthogonalLoop=1;jettySize=auto;html=1;fontSize=18;strokeColor=#475E75;fontFamily=Helvetica;fontColor=default;targetPerimeterSpacing=15;endSize=4;startSize=4;endArrow=blockThin;endFill=1;strokeWidth=1.5;startArrow=none;startFill=0;entryX=0;entryY=0.75;entryDx=0;entryDy=0;exitX=1;exitY=0.5;exitDx=0;exitDy=0;" edge="1" parent="1" source="YkXKvpvC7lJtgDXOQDdZ-86" target="YkXKvpvC7lJtgDXOQDdZ-22">
          <mxGeometry relative="1" as="geometry">
            <mxPoint x="1256" y="1221" as="targetPoint" />
            <mxPoint x="1018" y="1103" as="sourcePoint" />
            <Array as="points">
              <mxPoint x="1016" y="985" />
              <mxPoint x="1016" y="1163" />
            </Array>
          </mxGeometry>
        </mxCell>
        <mxCell id="YkXKvpvC7lJtgDXOQDdZ-83" value="&lt;font size=&quot;1&quot; color=&quot;#475e75&quot;&gt;&lt;b&gt;Workforce Person&lt;/b&gt;&lt;/font&gt;" style="rounded=1;whiteSpace=wrap;html=1;arcSize=50;strokeColor=#475e75;fillColor=#f5f6f7;strokeWidth=1.5;" vertex="1" parent="1">
          <mxGeometry x="744" y="1049.94" width="94" height="16" as="geometry" />
        </mxCell>
        <mxCell id="YkXKvpvC7lJtgDXOQDdZ-84" value="&lt;font color=&quot;#475e75&quot; size=&quot;1&quot;&gt;&lt;b style=&quot;&quot;&gt;User&lt;/b&gt;&lt;/font&gt;" style="rounded=1;whiteSpace=wrap;html=1;arcSize=50;strokeColor=#475e75;fillColor=#f5f6f7;strokeWidth=1.5;" vertex="1" parent="1">
          <mxGeometry x="961" y="1049.94" width="33" height="16" as="geometry" />
        </mxCell>
        <mxCell id="YkXKvpvC7lJtgDXOQDdZ-85" value="&lt;font size=&quot;1&quot; color=&quot;#475e75&quot;&gt;&lt;b&gt;Workforce Person&lt;/b&gt;&lt;/font&gt;" style="rounded=1;whiteSpace=wrap;html=1;arcSize=50;strokeColor=#475e75;fillColor=#f5f6f7;strokeWidth=1.5;" vertex="1" parent="1">
          <mxGeometry x="744" y="977.0799999999999" width="94" height="16" as="geometry" />
        </mxCell>
        <mxCell id="YkXKvpvC7lJtgDXOQDdZ-86" value="&lt;font color=&quot;#475e75&quot; size=&quot;1&quot;&gt;&lt;b style=&quot;&quot;&gt;User&lt;/b&gt;&lt;/font&gt;" style="rounded=1;whiteSpace=wrap;html=1;arcSize=50;strokeColor=#475e75;fillColor=#f5f6f7;strokeWidth=1.5;" vertex="1" parent="1">
          <mxGeometry x="961" y="977.0799999999999" width="33" height="16" as="geometry" />
        </mxCell>
      </root>
    </mxGraphModel>
  </diagram>
</mxfile>
